<?xml version="1.0" standalone="no"?>
 <!DOCTYPE svg PUBLIC "-//W3C//DTD SVG 1.1//EN" 
 "http://www.w3.org/Graphics/SVG/1.1/DTD/svg11.dtd"> 
<svg
  xmlns:svg="http://www.w3.org/2000/svg"
  xmlns="http://www.w3.org/2000/svg"
  xmlns:xlink="http://www.w3.org/1999/xlink"
  xmlns:inkscape="http://www.inkscape.org/namespaces/inkscape"
  version="1.1"
  width="297.0022mm" height="210.0072mm" viewBox="0.0000 0.0000 297.0022 210.0072">
<title>SVG Image created as GBAKicad-NPTH-drl_map.svg date 2026-06-11T12:09:02 </title>
  <desc>Image generated by PCBNEW </desc>
<g style="fill:#000000; fill-opacity:1.0000;stroke:#000000; stroke-opacity:1.0000;
stroke-linecap:round; stroke-linejoin:round;"
 transform="translate(0 0) scale(1 1)">
</g>
<g style="fill:none; 
stroke:#000000; stroke-width:0.0655; stroke-opacity:1; 
stroke-linecap:round; stroke-linejoin:round;">
<path d="M61.3784 74.6739
L66.3070 33.2459
" />
<path d="M61.3784,74.6739 C61.3784,133.9879 93.0737,129.8130 106.2080,98.4781" />
<path d="M114.0466,11.6831 C88.7742,-2.9979 69.1515,8.3537 66.3070,33.2459" />
<path d="M136.4745 11.7094
L114.0466 11.6831
" />
<path d="M161.3404 11.7225
L136.4745 11.7094
" />
<path d="M161.3404 11.7225
L184.2140 11.7225
" />
<path d="M184.2140,11.7225 C209.4863,-2.9586 230.0136,7.5410 231.9536,33.2852" />
<path d="M190.7942 98.1570
L106.2080 98.4781
" />
<path d="M231.9536 33.2852
L235.6238 74.3528
" />
<path d="M235.6238,74.3528 C235.6238,133.6667 203.9285,129.4918 190.7942,98.1570" />
</g>
<g style="fill:none; 
stroke:#000000; stroke-width:0.1311; stroke-opacity:1; 
stroke-linecap:round; stroke-linejoin:round;">
<path d="M143.2972 89.8203
L144.1492 90.6723
" />
<path d="M144.1492 89.8203
L143.2972 90.6723
" />
<path d="M150.8737 89.8203
L151.7257 90.6723
" />
<path d="M151.7257 89.8203
L150.8737 90.6723
" />
<circle cx="74.9977" cy="16.3440" r="0.5899" /> 
<circle cx="79.7777" cy="13.3572" r="0.5899" /> 
<circle cx="216.0324" cy="10.2640" r="0.5899" /> 
<circle cx="220.8124" cy="13.2509" r="0.5899" /> 
</g>
<g style="fill:none; 
stroke:#000000; stroke-width:0.2000; stroke-opacity:1; 
stroke-linecap:round; stroke-linejoin:round;">
<text x="63.3456" y="124.2043"
textLength="14.8667" font-size="2.6667" lengthAdjust="spacingAndGlyphs"
text-anchor="start" opacity="0" stroke-opacity="0">Drill Map:</text>
<g class="stroked-text"><desc>Drill Map:</desc>
<path d="M63.9534 124.1192
L63.9534 122.1192
" />
<path d="M63.9534 122.1192
L64.4296 122.1192
" />
<path d="M64.4296 122.1192
L64.7153 122.2144
" />
<path d="M64.7153 122.2144
L64.9058 122.4049
" />
<path d="M64.9058 122.4049
L65.0010 122.5953
" />
<path d="M65.0010 122.5953
L65.0962 122.9763
" />
<path d="M65.0962 122.9763
L65.0962 123.2620
" />
<path d="M65.0962 123.2620
L65.0010 123.6430
" />
<path d="M65.0010 123.6430
L64.9058 123.8334
" />
<path d="M64.9058 123.8334
L64.7153 124.0239
" />
<path d="M64.7153 124.0239
L64.4296 124.1192
" />
<path d="M64.4296 124.1192
L63.9534 124.1192
" />
<path d="M65.9534 124.1192
L65.9534 122.7858
" />
<path d="M65.9534 123.1668
L66.0486 122.9763
" />
<path d="M66.0486 122.9763
L66.1439 122.8811
" />
<path d="M66.1439 122.8811
L66.3343 122.7858
" />
<path d="M66.3343 122.7858
L66.5248 122.7858
" />
<path d="M67.1915 124.1192
L67.1915 122.7858
" />
<path d="M67.1915 122.1192
L67.0962 122.2144
" />
<path d="M67.0962 122.2144
L67.1915 122.3096
" />
<path d="M67.1915 122.3096
L67.2867 122.2144
" />
<path d="M67.2867 122.2144
L67.1915 122.1192
" />
<path d="M67.1915 122.1192
L67.1915 122.3096
" />
<path d="M68.4296 124.1192
L68.2391 124.0239
" />
<path d="M68.2391 124.0239
L68.1439 123.8334
" />
<path d="M68.1439 123.8334
L68.1439 122.1192
" />
<path d="M69.4772 124.1192
L69.2867 124.0239
" />
<path d="M69.2867 124.0239
L69.1915 123.8334
" />
<path d="M69.1915 123.8334
L69.1915 122.1192
" />
<path d="M71.7629 124.1192
L71.7629 122.1192
" />
<path d="M71.7629 122.1192
L72.4296 123.5477
" />
<path d="M72.4296 123.5477
L73.0962 122.1192
" />
<path d="M73.0962 122.1192
L73.0962 124.1192
" />
<path d="M74.9058 124.1192
L74.9058 123.0715
" />
<path d="M74.9058 123.0715
L74.8105 122.8811
" />
<path d="M74.8105 122.8811
L74.6201 122.7858
" />
<path d="M74.6201 122.7858
L74.2391 122.7858
" />
<path d="M74.2391 122.7858
L74.0486 122.8811
" />
<path d="M74.9058 124.0239
L74.7153 124.1192
" />
<path d="M74.7153 124.1192
L74.2391 124.1192
" />
<path d="M74.2391 124.1192
L74.0486 124.0239
" />
<path d="M74.0486 124.0239
L73.9534 123.8334
" />
<path d="M73.9534 123.8334
L73.9534 123.6430
" />
<path d="M73.9534 123.6430
L74.0486 123.4525
" />
<path d="M74.0486 123.4525
L74.2391 123.3573
" />
<path d="M74.2391 123.3573
L74.7153 123.3573
" />
<path d="M74.7153 123.3573
L74.9058 123.2620
" />
<path d="M75.8582 122.7858
L75.8582 124.7858
" />
<path d="M75.8582 122.8811
L76.0486 122.7858
" />
<path d="M76.0486 122.7858
L76.4296 122.7858
" />
<path d="M76.4296 122.7858
L76.6201 122.8811
" />
<path d="M76.6201 122.8811
L76.7153 122.9763
" />
<path d="M76.7153 122.9763
L76.8105 123.1668
" />
<path d="M76.8105 123.1668
L76.8105 123.7382
" />
<path d="M76.8105 123.7382
L76.7153 123.9287
" />
<path d="M76.7153 123.9287
L76.6201 124.0239
" />
<path d="M76.6201 124.0239
L76.4296 124.1192
" />
<path d="M76.4296 124.1192
L76.0486 124.1192
" />
<path d="M76.0486 124.1192
L75.8582 124.0239
" />
<path d="M77.6677 123.9287
L77.7629 124.0239
" />
<path d="M77.7629 124.0239
L77.6677 124.1192
" />
<path d="M77.6677 124.1192
L77.5724 124.0239
" />
<path d="M77.5724 124.0239
L77.6677 123.9287
" />
<path d="M77.6677 123.9287
L77.6677 124.1192
" />
<path d="M77.6677 122.8811
L77.7629 122.9763
" />
<path d="M77.7629 122.9763
L77.6677 123.0715
" />
<path d="M77.6677 123.0715
L77.5724 122.9763
" />
<path d="M77.5724 122.9763
L77.6677 122.8811
" />
<path d="M77.6677 122.8811
L77.6677 123.0715
" />
</g></g>
<g style="fill:none; 
stroke:#000000; stroke-width:0.1311; stroke-opacity:1; 
stroke-linecap:round; stroke-linejoin:round;">
<path d="M60.4936 126.9783
L61.3456 127.8303
" />
<path d="M61.3456 126.9783
L60.4936 127.8303
" />
</g>
<g style="fill:none; 
stroke:#000000; stroke-width:0.2000; stroke-opacity:1; 
stroke-linecap:round; stroke-linejoin:round;">
<text x="63.3456" y="128.4043"
textLength="66.6762" font-size="2.6667" lengthAdjust="spacingAndGlyphs"
text-anchor="start" opacity="0" stroke-opacity="0">0.650mm / 0.0256" (2 holes) (not plated)</text>
<g class="stroked-text"><desc>0.650mm / 0.0256" (2 holes) (not plated)</desc>
<path d="M64.3343 126.3192
L64.5248 126.3192
" />
<path d="M64.5248 126.3192
L64.7153 126.4144
" />
<path d="M64.7153 126.4144
L64.8105 126.5096
" />
<path d="M64.8105 126.5096
L64.9058 126.7001
" />
<path d="M64.9058 126.7001
L65.0010 127.0811
" />
<path d="M65.0010 127.0811
L65.0010 127.5573
" />
<path d="M65.0010 127.5573
L64.9058 127.9382
" />
<path d="M64.9058 127.9382
L64.8105 128.1287
" />
<path d="M64.8105 128.1287
L64.7153 128.2239
" />
<path d="M64.7153 128.2239
L64.5248 128.3192
" />
<path d="M64.5248 128.3192
L64.3343 128.3192
" />
<path d="M64.3343 128.3192
L64.1439 128.2239
" />
<path d="M64.1439 128.2239
L64.0486 128.1287
" />
<path d="M64.0486 128.1287
L63.9534 127.9382
" />
<path d="M63.9534 127.9382
L63.8582 127.5573
" />
<path d="M63.8582 127.5573
L63.8582 127.0811
" />
<path d="M63.8582 127.0811
L63.9534 126.7001
" />
<path d="M63.9534 126.7001
L64.0486 126.5096
" />
<path d="M64.0486 126.5096
L64.1439 126.4144
" />
<path d="M64.1439 126.4144
L64.3343 126.3192
" />
<path d="M65.8582 128.1287
L65.9534 128.2239
" />
<path d="M65.9534 128.2239
L65.8582 128.3192
" />
<path d="M65.8582 128.3192
L65.7629 128.2239
" />
<path d="M65.7629 128.2239
L65.8582 128.1287
" />
<path d="M65.8582 128.1287
L65.8582 128.3192
" />
<path d="M67.6677 126.3192
L67.2867 126.3192
" />
<path d="M67.2867 126.3192
L67.0962 126.4144
" />
<path d="M67.0962 126.4144
L67.0010 126.5096
" />
<path d="M67.0010 126.5096
L66.8105 126.7953
" />
<path d="M66.8105 126.7953
L66.7153 127.1763
" />
<path d="M66.7153 127.1763
L66.7153 127.9382
" />
<path d="M66.7153 127.9382
L66.8105 128.1287
" />
<path d="M66.8105 128.1287
L66.9058 128.2239
" />
<path d="M66.9058 128.2239
L67.0962 128.3192
" />
<path d="M67.0962 128.3192
L67.4772 128.3192
" />
<path d="M67.4772 128.3192
L67.6677 128.2239
" />
<path d="M67.6677 128.2239
L67.7629 128.1287
" />
<path d="M67.7629 128.1287
L67.8582 127.9382
" />
<path d="M67.8582 127.9382
L67.8582 127.4620
" />
<path d="M67.8582 127.4620
L67.7629 127.2715
" />
<path d="M67.7629 127.2715
L67.6677 127.1763
" />
<path d="M67.6677 127.1763
L67.4772 127.0811
" />
<path d="M67.4772 127.0811
L67.0962 127.0811
" />
<path d="M67.0962 127.0811
L66.9058 127.1763
" />
<path d="M66.9058 127.1763
L66.8105 127.2715
" />
<path d="M66.8105 127.2715
L66.7153 127.4620
" />
<path d="M69.6677 126.3192
L68.7153 126.3192
" />
<path d="M68.7153 126.3192
L68.6201 127.2715
" />
<path d="M68.6201 127.2715
L68.7153 127.1763
" />
<path d="M68.7153 127.1763
L68.9058 127.0811
" />
<path d="M68.9058 127.0811
L69.3820 127.0811
" />
<path d="M69.3820 127.0811
L69.5724 127.1763
" />
<path d="M69.5724 127.1763
L69.6677 127.2715
" />
<path d="M69.6677 127.2715
L69.7629 127.4620
" />
<path d="M69.7629 127.4620
L69.7629 127.9382
" />
<path d="M69.7629 127.9382
L69.6677 128.1287
" />
<path d="M69.6677 128.1287
L69.5724 128.2239
" />
<path d="M69.5724 128.2239
L69.3820 128.3192
" />
<path d="M69.3820 128.3192
L68.9058 128.3192
" />
<path d="M68.9058 128.3192
L68.7153 128.2239
" />
<path d="M68.7153 128.2239
L68.6201 128.1287
" />
<path d="M71.0010 126.3192
L71.1915 126.3192
" />
<path d="M71.1915 126.3192
L71.3820 126.4144
" />
<path d="M71.3820 126.4144
L71.4772 126.5096
" />
<path d="M71.4772 126.5096
L71.5724 126.7001
" />
<path d="M71.5724 126.7001
L71.6677 127.0811
" />
<path d="M71.6677 127.0811
L71.6677 127.5573
" />
<path d="M71.6677 127.5573
L71.5724 127.9382
" />
<path d="M71.5724 127.9382
L71.4772 128.1287
" />
<path d="M71.4772 128.1287
L71.3820 128.2239
" />
<path d="M71.3820 128.2239
L71.1915 128.3192
" />
<path d="M71.1915 128.3192
L71.0010 128.3192
" />
<path d="M71.0010 128.3192
L70.8105 128.2239
" />
<path d="M70.8105 128.2239
L70.7153 128.1287
" />
<path d="M70.7153 128.1287
L70.6201 127.9382
" />
<path d="M70.6201 127.9382
L70.5248 127.5573
" />
<path d="M70.5248 127.5573
L70.5248 127.0811
" />
<path d="M70.5248 127.0811
L70.6201 126.7001
" />
<path d="M70.6201 126.7001
L70.7153 126.5096
" />
<path d="M70.7153 126.5096
L70.8105 126.4144
" />
<path d="M70.8105 126.4144
L71.0010 126.3192
" />
<path d="M72.5248 128.3192
L72.5248 126.9858
" />
<path d="M72.5248 127.1763
L72.6201 127.0811
" />
<path d="M72.6201 127.0811
L72.8105 126.9858
" />
<path d="M72.8105 126.9858
L73.0962 126.9858
" />
<path d="M73.0962 126.9858
L73.2867 127.0811
" />
<path d="M73.2867 127.0811
L73.3820 127.2715
" />
<path d="M73.3820 127.2715
L73.3820 128.3192
" />
<path d="M73.3820 127.2715
L73.4772 127.0811
" />
<path d="M73.4772 127.0811
L73.6677 126.9858
" />
<path d="M73.6677 126.9858
L73.9534 126.9858
" />
<path d="M73.9534 126.9858
L74.1439 127.0811
" />
<path d="M74.1439 127.0811
L74.2391 127.2715
" />
<path d="M74.2391 127.2715
L74.2391 128.3192
" />
<path d="M75.1915 128.3192
L75.1915 126.9858
" />
<path d="M75.1915 127.1763
L75.2867 127.0811
" />
<path d="M75.2867 127.0811
L75.4772 126.9858
" />
<path d="M75.4772 126.9858
L75.7629 126.9858
" />
<path d="M75.7629 126.9858
L75.9534 127.0811
" />
<path d="M75.9534 127.0811
L76.0486 127.2715
" />
<path d="M76.0486 127.2715
L76.0486 128.3192
" />
<path d="M76.0486 127.2715
L76.1439 127.0811
" />
<path d="M76.1439 127.0811
L76.3343 126.9858
" />
<path d="M76.3343 126.9858
L76.6201 126.9858
" />
<path d="M76.6201 126.9858
L76.8105 127.0811
" />
<path d="M76.8105 127.0811
L76.9058 127.2715
" />
<path d="M76.9058 127.2715
L76.9058 128.3192
" />
<path d="M80.8105 126.2239
L79.0962 128.7953
" />
<path d="M83.3820 126.3192
L83.5724 126.3192
" />
<path d="M83.5724 126.3192
L83.7629 126.4144
" />
<path d="M83.7629 126.4144
L83.8582 126.5096
" />
<path d="M83.8582 126.5096
L83.9534 126.7001
" />
<path d="M83.9534 126.7001
L84.0486 127.0811
" />
<path d="M84.0486 127.0811
L84.0486 127.5573
" />
<path d="M84.0486 127.5573
L83.9534 127.9382
" />
<path d="M83.9534 127.9382
L83.8582 128.1287
" />
<path d="M83.8582 128.1287
L83.7629 128.2239
" />
<path d="M83.7629 128.2239
L83.5724 128.3192
" />
<path d="M83.5724 128.3192
L83.3820 128.3192
" />
<path d="M83.3820 128.3192
L83.1915 128.2239
" />
<path d="M83.1915 128.2239
L83.0962 128.1287
" />
<path d="M83.0962 128.1287
L83.0010 127.9382
" />
<path d="M83.0010 127.9382
L82.9058 127.5573
" />
<path d="M82.9058 127.5573
L82.9058 127.0811
" />
<path d="M82.9058 127.0811
L83.0010 126.7001
" />
<path d="M83.0010 126.7001
L83.0962 126.5096
" />
<path d="M83.0962 126.5096
L83.1915 126.4144
" />
<path d="M83.1915 126.4144
L83.3820 126.3192
" />
<path d="M84.9058 128.1287
L85.0010 128.2239
" />
<path d="M85.0010 128.2239
L84.9058 128.3192
" />
<path d="M84.9058 128.3192
L84.8105 128.2239
" />
<path d="M84.8105 128.2239
L84.9058 128.1287
" />
<path d="M84.9058 128.1287
L84.9058 128.3192
" />
<path d="M86.2391 126.3192
L86.4296 126.3192
" />
<path d="M86.4296 126.3192
L86.6201 126.4144
" />
<path d="M86.6201 126.4144
L86.7153 126.5096
" />
<path d="M86.7153 126.5096
L86.8105 126.7001
" />
<path d="M86.8105 126.7001
L86.9058 127.0811
" />
<path d="M86.9058 127.0811
L86.9058 127.5573
" />
<path d="M86.9058 127.5573
L86.8105 127.9382
" />
<path d="M86.8105 127.9382
L86.7153 128.1287
" />
<path d="M86.7153 128.1287
L86.6201 128.2239
" />
<path d="M86.6201 128.2239
L86.4296 128.3192
" />
<path d="M86.4296 128.3192
L86.2391 128.3192
" />
<path d="M86.2391 128.3192
L86.0486 128.2239
" />
<path d="M86.0486 128.2239
L85.9534 128.1287
" />
<path d="M85.9534 128.1287
L85.8582 127.9382
" />
<path d="M85.8582 127.9382
L85.7629 127.5573
" />
<path d="M85.7629 127.5573
L85.7629 127.0811
" />
<path d="M85.7629 127.0811
L85.8582 126.7001
" />
<path d="M85.8582 126.7001
L85.9534 126.5096
" />
<path d="M85.9534 126.5096
L86.0486 126.4144
" />
<path d="M86.0486 126.4144
L86.2391 126.3192
" />
<path d="M87.6677 126.5096
L87.7629 126.4144
" />
<path d="M87.7629 126.4144
L87.9534 126.3192
" />
<path d="M87.9534 126.3192
L88.4296 126.3192
" />
<path d="M88.4296 126.3192
L88.6201 126.4144
" />
<path d="M88.6201 126.4144
L88.7153 126.5096
" />
<path d="M88.7153 126.5096
L88.8105 126.7001
" />
<path d="M88.8105 126.7001
L88.8105 126.8906
" />
<path d="M88.8105 126.8906
L88.7153 127.1763
" />
<path d="M88.7153 127.1763
L87.5724 128.3192
" />
<path d="M87.5724 128.3192
L88.8105 128.3192
" />
<path d="M90.6201 126.3192
L89.6677 126.3192
" />
<path d="M89.6677 126.3192
L89.5724 127.2715
" />
<path d="M89.5724 127.2715
L89.6677 127.1763
" />
<path d="M89.6677 127.1763
L89.8582 127.0811
" />
<path d="M89.8582 127.0811
L90.3343 127.0811
" />
<path d="M90.3343 127.0811
L90.5248 127.1763
" />
<path d="M90.5248 127.1763
L90.6201 127.2715
" />
<path d="M90.6201 127.2715
L90.7153 127.4620
" />
<path d="M90.7153 127.4620
L90.7153 127.9382
" />
<path d="M90.7153 127.9382
L90.6201 128.1287
" />
<path d="M90.6201 128.1287
L90.5248 128.2239
" />
<path d="M90.5248 128.2239
L90.3343 128.3192
" />
<path d="M90.3343 128.3192
L89.8582 128.3192
" />
<path d="M89.8582 128.3192
L89.6677 128.2239
" />
<path d="M89.6677 128.2239
L89.5724 128.1287
" />
<path d="M92.4296 126.3192
L92.0486 126.3192
" />
<path d="M92.0486 126.3192
L91.8582 126.4144
" />
<path d="M91.8582 126.4144
L91.7629 126.5096
" />
<path d="M91.7629 126.5096
L91.5724 126.7953
" />
<path d="M91.5724 126.7953
L91.4772 127.1763
" />
<path d="M91.4772 127.1763
L91.4772 127.9382
" />
<path d="M91.4772 127.9382
L91.5724 128.1287
" />
<path d="M91.5724 128.1287
L91.6677 128.2239
" />
<path d="M91.6677 128.2239
L91.8582 128.3192
" />
<path d="M91.8582 128.3192
L92.2391 128.3192
" />
<path d="M92.2391 128.3192
L92.4296 128.2239
" />
<path d="M92.4296 128.2239
L92.5248 128.1287
" />
<path d="M92.5248 128.1287
L92.6201 127.9382
" />
<path d="M92.6201 127.9382
L92.6201 127.4620
" />
<path d="M92.6201 127.4620
L92.5248 127.2715
" />
<path d="M92.5248 127.2715
L92.4296 127.1763
" />
<path d="M92.4296 127.1763
L92.2391 127.0811
" />
<path d="M92.2391 127.0811
L91.8582 127.0811
" />
<path d="M91.8582 127.0811
L91.6677 127.1763
" />
<path d="M91.6677 127.1763
L91.5724 127.2715
" />
<path d="M91.5724 127.2715
L91.4772 127.4620
" />
<path d="M93.3820 126.3192
L93.3820 126.7001
" />
<path d="M94.1439 126.3192
L94.1439 126.7001
" />
<path d="M97.0962 129.0811
L97.0010 128.9858
" />
<path d="M97.0010 128.9858
L96.8105 128.7001
" />
<path d="M96.8105 128.7001
L96.7153 128.5096
" />
<path d="M96.7153 128.5096
L96.6201 128.2239
" />
<path d="M96.6201 128.2239
L96.5248 127.7477
" />
<path d="M96.5248 127.7477
L96.5248 127.3668
" />
<path d="M96.5248 127.3668
L96.6201 126.8906
" />
<path d="M96.6201 126.8906
L96.7153 126.6049
" />
<path d="M96.7153 126.6049
L96.8105 126.4144
" />
<path d="M96.8105 126.4144
L97.0010 126.1287
" />
<path d="M97.0010 126.1287
L97.0962 126.0334
" />
<path d="M97.7629 126.5096
L97.8582 126.4144
" />
<path d="M97.8582 126.4144
L98.0486 126.3192
" />
<path d="M98.0486 126.3192
L98.5248 126.3192
" />
<path d="M98.5248 126.3192
L98.7153 126.4144
" />
<path d="M98.7153 126.4144
L98.8105 126.5096
" />
<path d="M98.8105 126.5096
L98.9058 126.7001
" />
<path d="M98.9058 126.7001
L98.9058 126.8906
" />
<path d="M98.9058 126.8906
L98.8105 127.1763
" />
<path d="M98.8105 127.1763
L97.6677 128.3192
" />
<path d="M97.6677 128.3192
L98.9058 128.3192
" />
<path d="M101.2867 128.3192
L101.2867 126.3192
" />
<path d="M102.1439 128.3192
L102.1439 127.2715
" />
<path d="M102.1439 127.2715
L102.0486 127.0811
" />
<path d="M102.0486 127.0811
L101.8582 126.9858
" />
<path d="M101.8582 126.9858
L101.5724 126.9858
" />
<path d="M101.5724 126.9858
L101.3820 127.0811
" />
<path d="M101.3820 127.0811
L101.2867 127.1763
" />
<path d="M103.3820 128.3192
L103.1915 128.2239
" />
<path d="M103.1915 128.2239
L103.0962 128.1287
" />
<path d="M103.0962 128.1287
L103.0010 127.9382
" />
<path d="M103.0010 127.9382
L103.0010 127.3668
" />
<path d="M103.0010 127.3668
L103.0962 127.1763
" />
<path d="M103.0962 127.1763
L103.1915 127.0811
" />
<path d="M103.1915 127.0811
L103.3820 126.9858
" />
<path d="M103.3820 126.9858
L103.6677 126.9858
" />
<path d="M103.6677 126.9858
L103.8582 127.0811
" />
<path d="M103.8582 127.0811
L103.9534 127.1763
" />
<path d="M103.9534 127.1763
L104.0486 127.3668
" />
<path d="M104.0486 127.3668
L104.0486 127.9382
" />
<path d="M104.0486 127.9382
L103.9534 128.1287
" />
<path d="M103.9534 128.1287
L103.8582 128.2239
" />
<path d="M103.8582 128.2239
L103.6677 128.3192
" />
<path d="M103.6677 128.3192
L103.3820 128.3192
" />
<path d="M105.1915 128.3192
L105.0010 128.2239
" />
<path d="M105.0010 128.2239
L104.9058 128.0334
" />
<path d="M104.9058 128.0334
L104.9058 126.3192
" />
<path d="M106.7153 128.2239
L106.5248 128.3192
" />
<path d="M106.5248 128.3192
L106.1439 128.3192
" />
<path d="M106.1439 128.3192
L105.9534 128.2239
" />
<path d="M105.9534 128.2239
L105.8582 128.0334
" />
<path d="M105.8582 128.0334
L105.8582 127.2715
" />
<path d="M105.8582 127.2715
L105.9534 127.0811
" />
<path d="M105.9534 127.0811
L106.1439 126.9858
" />
<path d="M106.1439 126.9858
L106.5248 126.9858
" />
<path d="M106.5248 126.9858
L106.7153 127.0811
" />
<path d="M106.7153 127.0811
L106.8105 127.2715
" />
<path d="M106.8105 127.2715
L106.8105 127.4620
" />
<path d="M106.8105 127.4620
L105.8582 127.6525
" />
<path d="M107.5724 128.2239
L107.7629 128.3192
" />
<path d="M107.7629 128.3192
L108.1439 128.3192
" />
<path d="M108.1439 128.3192
L108.3343 128.2239
" />
<path d="M108.3343 128.2239
L108.4296 128.0334
" />
<path d="M108.4296 128.0334
L108.4296 127.9382
" />
<path d="M108.4296 127.9382
L108.3343 127.7477
" />
<path d="M108.3343 127.7477
L108.1439 127.6525
" />
<path d="M108.1439 127.6525
L107.8582 127.6525
" />
<path d="M107.8582 127.6525
L107.6677 127.5573
" />
<path d="M107.6677 127.5573
L107.5724 127.3668
" />
<path d="M107.5724 127.3668
L107.5724 127.2715
" />
<path d="M107.5724 127.2715
L107.6677 127.0811
" />
<path d="M107.6677 127.0811
L107.8582 126.9858
" />
<path d="M107.8582 126.9858
L108.1439 126.9858
" />
<path d="M108.1439 126.9858
L108.3343 127.0811
" />
<path d="M109.0962 129.0811
L109.1915 128.9858
" />
<path d="M109.1915 128.9858
L109.3820 128.7001
" />
<path d="M109.3820 128.7001
L109.4772 128.5096
" />
<path d="M109.4772 128.5096
L109.5724 128.2239
" />
<path d="M109.5724 128.2239
L109.6677 127.7477
" />
<path d="M109.6677 127.7477
L109.6677 127.3668
" />
<path d="M109.6677 127.3668
L109.5724 126.8906
" />
<path d="M109.5724 126.8906
L109.4772 126.6049
" />
<path d="M109.4772 126.6049
L109.3820 126.4144
" />
<path d="M109.3820 126.4144
L109.1915 126.1287
" />
<path d="M109.1915 126.1287
L109.0962 126.0334
" />
<path d="M112.7153 129.0811
L112.6201 128.9858
" />
<path d="M112.6201 128.9858
L112.4296 128.7001
" />
<path d="M112.4296 128.7001
L112.3343 128.5096
" />
<path d="M112.3343 128.5096
L112.2391 128.2239
" />
<path d="M112.2391 128.2239
L112.1439 127.7477
" />
<path d="M112.1439 127.7477
L112.1439 127.3668
" />
<path d="M112.1439 127.3668
L112.2391 126.8906
" />
<path d="M112.2391 126.8906
L112.3343 126.6049
" />
<path d="M112.3343 126.6049
L112.4296 126.4144
" />
<path d="M112.4296 126.4144
L112.6201 126.1287
" />
<path d="M112.6201 126.1287
L112.7153 126.0334
" />
<path d="M113.4772 126.9858
L113.4772 128.3192
" />
<path d="M113.4772 127.1763
L113.5724 127.0811
" />
<path d="M113.5724 127.0811
L113.7629 126.9858
" />
<path d="M113.7629 126.9858
L114.0486 126.9858
" />
<path d="M114.0486 126.9858
L114.2391 127.0811
" />
<path d="M114.2391 127.0811
L114.3343 127.2715
" />
<path d="M114.3343 127.2715
L114.3343 128.3192
" />
<path d="M115.5724 128.3192
L115.3820 128.2239
" />
<path d="M115.3820 128.2239
L115.2867 128.1287
" />
<path d="M115.2867 128.1287
L115.1915 127.9382
" />
<path d="M115.1915 127.9382
L115.1915 127.3668
" />
<path d="M115.1915 127.3668
L115.2867 127.1763
" />
<path d="M115.2867 127.1763
L115.3820 127.0811
" />
<path d="M115.3820 127.0811
L115.5724 126.9858
" />
<path d="M115.5724 126.9858
L115.8582 126.9858
" />
<path d="M115.8582 126.9858
L116.0486 127.0811
" />
<path d="M116.0486 127.0811
L116.1439 127.1763
" />
<path d="M116.1439 127.1763
L116.2391 127.3668
" />
<path d="M116.2391 127.3668
L116.2391 127.9382
" />
<path d="M116.2391 127.9382
L116.1439 128.1287
" />
<path d="M116.1439 128.1287
L116.0486 128.2239
" />
<path d="M116.0486 128.2239
L115.8582 128.3192
" />
<path d="M115.8582 128.3192
L115.5724 128.3192
" />
<path d="M116.8105 126.9858
L117.5724 126.9858
" />
<path d="M117.0962 126.3192
L117.0962 128.0334
" />
<path d="M117.0962 128.0334
L117.1915 128.2239
" />
<path d="M117.1915 128.2239
L117.3820 128.3192
" />
<path d="M117.3820 128.3192
L117.5724 128.3192
" />
<path d="M119.7629 126.9858
L119.7629 128.9858
" />
<path d="M119.7629 127.0811
L119.9534 126.9858
" />
<path d="M119.9534 126.9858
L120.3343 126.9858
" />
<path d="M120.3343 126.9858
L120.5248 127.0811
" />
<path d="M120.5248 127.0811
L120.6201 127.1763
" />
<path d="M120.6201 127.1763
L120.7153 127.3668
" />
<path d="M120.7153 127.3668
L120.7153 127.9382
" />
<path d="M120.7153 127.9382
L120.6201 128.1287
" />
<path d="M120.6201 128.1287
L120.5248 128.2239
" />
<path d="M120.5248 128.2239
L120.3343 128.3192
" />
<path d="M120.3343 128.3192
L119.9534 128.3192
" />
<path d="M119.9534 128.3192
L119.7629 128.2239
" />
<path d="M121.8582 128.3192
L121.6677 128.2239
" />
<path d="M121.6677 128.2239
L121.5724 128.0334
" />
<path d="M121.5724 128.0334
L121.5724 126.3192
" />
<path d="M123.4772 128.3192
L123.4772 127.2715
" />
<path d="M123.4772 127.2715
L123.3820 127.0811
" />
<path d="M123.3820 127.0811
L123.1915 126.9858
" />
<path d="M123.1915 126.9858
L122.8105 126.9858
" />
<path d="M122.8105 126.9858
L122.6201 127.0811
" />
<path d="M123.4772 128.2239
L123.2867 128.3192
" />
<path d="M123.2867 128.3192
L122.8105 128.3192
" />
<path d="M122.8105 128.3192
L122.6201 128.2239
" />
<path d="M122.6201 128.2239
L122.5248 128.0334
" />
<path d="M122.5248 128.0334
L122.5248 127.8430
" />
<path d="M122.5248 127.8430
L122.6201 127.6525
" />
<path d="M122.6201 127.6525
L122.8105 127.5573
" />
<path d="M122.8105 127.5573
L123.2867 127.5573
" />
<path d="M123.2867 127.5573
L123.4772 127.4620
" />
<path d="M124.1439 126.9858
L124.9058 126.9858
" />
<path d="M124.4296 126.3192
L124.4296 128.0334
" />
<path d="M124.4296 128.0334
L124.5248 128.2239
" />
<path d="M124.5248 128.2239
L124.7153 128.3192
" />
<path d="M124.7153 128.3192
L124.9058 128.3192
" />
<path d="M126.3343 128.2239
L126.1439 128.3192
" />
<path d="M126.1439 128.3192
L125.7629 128.3192
" />
<path d="M125.7629 128.3192
L125.5724 128.2239
" />
<path d="M125.5724 128.2239
L125.4772 128.0334
" />
<path d="M125.4772 128.0334
L125.4772 127.2715
" />
<path d="M125.4772 127.2715
L125.5724 127.0811
" />
<path d="M125.5724 127.0811
L125.7629 126.9858
" />
<path d="M125.7629 126.9858
L126.1439 126.9858
" />
<path d="M126.1439 126.9858
L126.3343 127.0811
" />
<path d="M126.3343 127.0811
L126.4296 127.2715
" />
<path d="M126.4296 127.2715
L126.4296 127.4620
" />
<path d="M126.4296 127.4620
L125.4772 127.6525
" />
<path d="M128.1439 128.3192
L128.1439 126.3192
" />
<path d="M128.1439 128.2239
L127.9534 128.3192
" />
<path d="M127.9534 128.3192
L127.5724 128.3192
" />
<path d="M127.5724 128.3192
L127.3820 128.2239
" />
<path d="M127.3820 128.2239
L127.2867 128.1287
" />
<path d="M127.2867 128.1287
L127.1915 127.9382
" />
<path d="M127.1915 127.9382
L127.1915 127.3668
" />
<path d="M127.1915 127.3668
L127.2867 127.1763
" />
<path d="M127.2867 127.1763
L127.3820 127.0811
" />
<path d="M127.3820 127.0811
L127.5724 126.9858
" />
<path d="M127.5724 126.9858
L127.9534 126.9858
" />
<path d="M127.9534 126.9858
L128.1439 127.0811
" />
<path d="M128.9058 129.0811
L129.0010 128.9858
" />
<path d="M129.0010 128.9858
L129.1915 128.7001
" />
<path d="M129.1915 128.7001
L129.2867 128.5096
" />
<path d="M129.2867 128.5096
L129.3820 128.2239
" />
<path d="M129.3820 128.2239
L129.4772 127.7477
" />
<path d="M129.4772 127.7477
L129.4772 127.3668
" />
<path d="M129.4772 127.3668
L129.3820 126.8906
" />
<path d="M129.3820 126.8906
L129.2867 126.6049
" />
<path d="M129.2867 126.6049
L129.1915 126.4144
" />
<path d="M129.1915 126.4144
L129.0010 126.1287
" />
<path d="M129.0010 126.1287
L128.9058 126.0334
" />
</g></g>
<g style="fill:none; 
stroke:#000000; stroke-width:0.1311; stroke-opacity:1; 
stroke-linecap:round; stroke-linejoin:round;">
<circle cx="60.7558" cy="130.0443" r="0.5899" /> 
</g>
<g style="fill:none; 
stroke:#000000; stroke-width:0.2000; stroke-opacity:1; 
stroke-linecap:round; stroke-linejoin:round;">
<text x="63.3456" y="131.0443"
textLength="66.6762" font-size="2.6667" lengthAdjust="spacingAndGlyphs"
text-anchor="start" opacity="0" stroke-opacity="0">0.900mm / 0.0354" (4 holes) (not plated)</text>
<g class="stroked-text"><desc>0.900mm / 0.0354" (4 holes) (not plated)</desc>
<path d="M64.3343 128.9592
L64.5248 128.9592
" />
<path d="M64.5248 128.9592
L64.7153 129.0544
" />
<path d="M64.7153 129.0544
L64.8105 129.1496
" />
<path d="M64.8105 129.1496
L64.9058 129.3401
" />
<path d="M64.9058 129.3401
L65.0010 129.7211
" />
<path d="M65.0010 129.7211
L65.0010 130.1973
" />
<path d="M65.0010 130.1973
L64.9058 130.5782
" />
<path d="M64.9058 130.5782
L64.8105 130.7687
" />
<path d="M64.8105 130.7687
L64.7153 130.8639
" />
<path d="M64.7153 130.8639
L64.5248 130.9592
" />
<path d="M64.5248 130.9592
L64.3343 130.9592
" />
<path d="M64.3343 130.9592
L64.1439 130.8639
" />
<path d="M64.1439 130.8639
L64.0486 130.7687
" />
<path d="M64.0486 130.7687
L63.9534 130.5782
" />
<path d="M63.9534 130.5782
L63.8582 130.1973
" />
<path d="M63.8582 130.1973
L63.8582 129.7211
" />
<path d="M63.8582 129.7211
L63.9534 129.3401
" />
<path d="M63.9534 129.3401
L64.0486 129.1496
" />
<path d="M64.0486 129.1496
L64.1439 129.0544
" />
<path d="M64.1439 129.0544
L64.3343 128.9592
" />
<path d="M65.8582 130.7687
L65.9534 130.8639
" />
<path d="M65.9534 130.8639
L65.8582 130.9592
" />
<path d="M65.8582 130.9592
L65.7629 130.8639
" />
<path d="M65.7629 130.8639
L65.8582 130.7687
" />
<path d="M65.8582 130.7687
L65.8582 130.9592
" />
<path d="M66.9058 130.9592
L67.2867 130.9592
" />
<path d="M67.2867 130.9592
L67.4772 130.8639
" />
<path d="M67.4772 130.8639
L67.5724 130.7687
" />
<path d="M67.5724 130.7687
L67.7629 130.4830
" />
<path d="M67.7629 130.4830
L67.8582 130.1020
" />
<path d="M67.8582 130.1020
L67.8582 129.3401
" />
<path d="M67.8582 129.3401
L67.7629 129.1496
" />
<path d="M67.7629 129.1496
L67.6677 129.0544
" />
<path d="M67.6677 129.0544
L67.4772 128.9592
" />
<path d="M67.4772 128.9592
L67.0962 128.9592
" />
<path d="M67.0962 128.9592
L66.9058 129.0544
" />
<path d="M66.9058 129.0544
L66.8105 129.1496
" />
<path d="M66.8105 129.1496
L66.7153 129.3401
" />
<path d="M66.7153 129.3401
L66.7153 129.8163
" />
<path d="M66.7153 129.8163
L66.8105 130.0068
" />
<path d="M66.8105 130.0068
L66.9058 130.1020
" />
<path d="M66.9058 130.1020
L67.0962 130.1973
" />
<path d="M67.0962 130.1973
L67.4772 130.1973
" />
<path d="M67.4772 130.1973
L67.6677 130.1020
" />
<path d="M67.6677 130.1020
L67.7629 130.0068
" />
<path d="M67.7629 130.0068
L67.8582 129.8163
" />
<path d="M69.0962 128.9592
L69.2867 128.9592
" />
<path d="M69.2867 128.9592
L69.4772 129.0544
" />
<path d="M69.4772 129.0544
L69.5724 129.1496
" />
<path d="M69.5724 129.1496
L69.6677 129.3401
" />
<path d="M69.6677 129.3401
L69.7629 129.7211
" />
<path d="M69.7629 129.7211
L69.7629 130.1973
" />
<path d="M69.7629 130.1973
L69.6677 130.5782
" />
<path d="M69.6677 130.5782
L69.5724 130.7687
" />
<path d="M69.5724 130.7687
L69.4772 130.8639
" />
<path d="M69.4772 130.8639
L69.2867 130.9592
" />
<path d="M69.2867 130.9592
L69.0962 130.9592
" />
<path d="M69.0962 130.9592
L68.9058 130.8639
" />
<path d="M68.9058 130.8639
L68.8105 130.7687
" />
<path d="M68.8105 130.7687
L68.7153 130.5782
" />
<path d="M68.7153 130.5782
L68.6201 130.1973
" />
<path d="M68.6201 130.1973
L68.6201 129.7211
" />
<path d="M68.6201 129.7211
L68.7153 129.3401
" />
<path d="M68.7153 129.3401
L68.8105 129.1496
" />
<path d="M68.8105 129.1496
L68.9058 129.0544
" />
<path d="M68.9058 129.0544
L69.0962 128.9592
" />
<path d="M71.0010 128.9592
L71.1915 128.9592
" />
<path d="M71.1915 128.9592
L71.3820 129.0544
" />
<path d="M71.3820 129.0544
L71.4772 129.1496
" />
<path d="M71.4772 129.1496
L71.5724 129.3401
" />
<path d="M71.5724 129.3401
L71.6677 129.7211
" />
<path d="M71.6677 129.7211
L71.6677 130.1973
" />
<path d="M71.6677 130.1973
L71.5724 130.5782
" />
<path d="M71.5724 130.5782
L71.4772 130.7687
" />
<path d="M71.4772 130.7687
L71.3820 130.8639
" />
<path d="M71.3820 130.8639
L71.1915 130.9592
" />
<path d="M71.1915 130.9592
L71.0010 130.9592
" />
<path d="M71.0010 130.9592
L70.8105 130.8639
" />
<path d="M70.8105 130.8639
L70.7153 130.7687
" />
<path d="M70.7153 130.7687
L70.6201 130.5782
" />
<path d="M70.6201 130.5782
L70.5248 130.1973
" />
<path d="M70.5248 130.1973
L70.5248 129.7211
" />
<path d="M70.5248 129.7211
L70.6201 129.3401
" />
<path d="M70.6201 129.3401
L70.7153 129.1496
" />
<path d="M70.7153 129.1496
L70.8105 129.0544
" />
<path d="M70.8105 129.0544
L71.0010 128.9592
" />
<path d="M72.5248 130.9592
L72.5248 129.6258
" />
<path d="M72.5248 129.8163
L72.6201 129.7211
" />
<path d="M72.6201 129.7211
L72.8105 129.6258
" />
<path d="M72.8105 129.6258
L73.0962 129.6258
" />
<path d="M73.0962 129.6258
L73.2867 129.7211
" />
<path d="M73.2867 129.7211
L73.3820 129.9115
" />
<path d="M73.3820 129.9115
L73.3820 130.9592
" />
<path d="M73.3820 129.9115
L73.4772 129.7211
" />
<path d="M73.4772 129.7211
L73.6677 129.6258
" />
<path d="M73.6677 129.6258
L73.9534 129.6258
" />
<path d="M73.9534 129.6258
L74.1439 129.7211
" />
<path d="M74.1439 129.7211
L74.2391 129.9115
" />
<path d="M74.2391 129.9115
L74.2391 130.9592
" />
<path d="M75.1915 130.9592
L75.1915 129.6258
" />
<path d="M75.1915 129.8163
L75.2867 129.7211
" />
<path d="M75.2867 129.7211
L75.4772 129.6258
" />
<path d="M75.4772 129.6258
L75.7629 129.6258
" />
<path d="M75.7629 129.6258
L75.9534 129.7211
" />
<path d="M75.9534 129.7211
L76.0486 129.9115
" />
<path d="M76.0486 129.9115
L76.0486 130.9592
" />
<path d="M76.0486 129.9115
L76.1439 129.7211
" />
<path d="M76.1439 129.7211
L76.3343 129.6258
" />
<path d="M76.3343 129.6258
L76.6201 129.6258
" />
<path d="M76.6201 129.6258
L76.8105 129.7211
" />
<path d="M76.8105 129.7211
L76.9058 129.9115
" />
<path d="M76.9058 129.9115
L76.9058 130.9592
" />
<path d="M80.8105 128.8639
L79.0962 131.4353
" />
<path d="M83.3820 128.9592
L83.5724 128.9592
" />
<path d="M83.5724 128.9592
L83.7629 129.0544
" />
<path d="M83.7629 129.0544
L83.8582 129.1496
" />
<path d="M83.8582 129.1496
L83.9534 129.3401
" />
<path d="M83.9534 129.3401
L84.0486 129.7211
" />
<path d="M84.0486 129.7211
L84.0486 130.1973
" />
<path d="M84.0486 130.1973
L83.9534 130.5782
" />
<path d="M83.9534 130.5782
L83.8582 130.7687
" />
<path d="M83.8582 130.7687
L83.7629 130.8639
" />
<path d="M83.7629 130.8639
L83.5724 130.9592
" />
<path d="M83.5724 130.9592
L83.3820 130.9592
" />
<path d="M83.3820 130.9592
L83.1915 130.8639
" />
<path d="M83.1915 130.8639
L83.0962 130.7687
" />
<path d="M83.0962 130.7687
L83.0010 130.5782
" />
<path d="M83.0010 130.5782
L82.9058 130.1973
" />
<path d="M82.9058 130.1973
L82.9058 129.7211
" />
<path d="M82.9058 129.7211
L83.0010 129.3401
" />
<path d="M83.0010 129.3401
L83.0962 129.1496
" />
<path d="M83.0962 129.1496
L83.1915 129.0544
" />
<path d="M83.1915 129.0544
L83.3820 128.9592
" />
<path d="M84.9058 130.7687
L85.0010 130.8639
" />
<path d="M85.0010 130.8639
L84.9058 130.9592
" />
<path d="M84.9058 130.9592
L84.8105 130.8639
" />
<path d="M84.8105 130.8639
L84.9058 130.7687
" />
<path d="M84.9058 130.7687
L84.9058 130.9592
" />
<path d="M86.2391 128.9592
L86.4296 128.9592
" />
<path d="M86.4296 128.9592
L86.6201 129.0544
" />
<path d="M86.6201 129.0544
L86.7153 129.1496
" />
<path d="M86.7153 129.1496
L86.8105 129.3401
" />
<path d="M86.8105 129.3401
L86.9058 129.7211
" />
<path d="M86.9058 129.7211
L86.9058 130.1973
" />
<path d="M86.9058 130.1973
L86.8105 130.5782
" />
<path d="M86.8105 130.5782
L86.7153 130.7687
" />
<path d="M86.7153 130.7687
L86.6201 130.8639
" />
<path d="M86.6201 130.8639
L86.4296 130.9592
" />
<path d="M86.4296 130.9592
L86.2391 130.9592
" />
<path d="M86.2391 130.9592
L86.0486 130.8639
" />
<path d="M86.0486 130.8639
L85.9534 130.7687
" />
<path d="M85.9534 130.7687
L85.8582 130.5782
" />
<path d="M85.8582 130.5782
L85.7629 130.1973
" />
<path d="M85.7629 130.1973
L85.7629 129.7211
" />
<path d="M85.7629 129.7211
L85.8582 129.3401
" />
<path d="M85.8582 129.3401
L85.9534 129.1496
" />
<path d="M85.9534 129.1496
L86.0486 129.0544
" />
<path d="M86.0486 129.0544
L86.2391 128.9592
" />
<path d="M87.5724 128.9592
L88.8105 128.9592
" />
<path d="M88.8105 128.9592
L88.1439 129.7211
" />
<path d="M88.1439 129.7211
L88.4296 129.7211
" />
<path d="M88.4296 129.7211
L88.6201 129.8163
" />
<path d="M88.6201 129.8163
L88.7153 129.9115
" />
<path d="M88.7153 129.9115
L88.8105 130.1020
" />
<path d="M88.8105 130.1020
L88.8105 130.5782
" />
<path d="M88.8105 130.5782
L88.7153 130.7687
" />
<path d="M88.7153 130.7687
L88.6201 130.8639
" />
<path d="M88.6201 130.8639
L88.4296 130.9592
" />
<path d="M88.4296 130.9592
L87.8582 130.9592
" />
<path d="M87.8582 130.9592
L87.6677 130.8639
" />
<path d="M87.6677 130.8639
L87.5724 130.7687
" />
<path d="M90.6201 128.9592
L89.6677 128.9592
" />
<path d="M89.6677 128.9592
L89.5724 129.9115
" />
<path d="M89.5724 129.9115
L89.6677 129.8163
" />
<path d="M89.6677 129.8163
L89.8582 129.7211
" />
<path d="M89.8582 129.7211
L90.3343 129.7211
" />
<path d="M90.3343 129.7211
L90.5248 129.8163
" />
<path d="M90.5248 129.8163
L90.6201 129.9115
" />
<path d="M90.6201 129.9115
L90.7153 130.1020
" />
<path d="M90.7153 130.1020
L90.7153 130.5782
" />
<path d="M90.7153 130.5782
L90.6201 130.7687
" />
<path d="M90.6201 130.7687
L90.5248 130.8639
" />
<path d="M90.5248 130.8639
L90.3343 130.9592
" />
<path d="M90.3343 130.9592
L89.8582 130.9592
" />
<path d="M89.8582 130.9592
L89.6677 130.8639
" />
<path d="M89.6677 130.8639
L89.5724 130.7687
" />
<path d="M92.4296 129.6258
L92.4296 130.9592
" />
<path d="M91.9534 128.8639
L91.4772 130.2925
" />
<path d="M91.4772 130.2925
L92.7153 130.2925
" />
<path d="M93.3820 128.9592
L93.3820 129.3401
" />
<path d="M94.1439 128.9592
L94.1439 129.3401
" />
<path d="M97.0962 131.7211
L97.0010 131.6258
" />
<path d="M97.0010 131.6258
L96.8105 131.3401
" />
<path d="M96.8105 131.3401
L96.7153 131.1496
" />
<path d="M96.7153 131.1496
L96.6201 130.8639
" />
<path d="M96.6201 130.8639
L96.5248 130.3877
" />
<path d="M96.5248 130.3877
L96.5248 130.0068
" />
<path d="M96.5248 130.0068
L96.6201 129.5306
" />
<path d="M96.6201 129.5306
L96.7153 129.2449
" />
<path d="M96.7153 129.2449
L96.8105 129.0544
" />
<path d="M96.8105 129.0544
L97.0010 128.7687
" />
<path d="M97.0010 128.7687
L97.0962 128.6734
" />
<path d="M98.7153 129.6258
L98.7153 130.9592
" />
<path d="M98.2391 128.8639
L97.7629 130.2925
" />
<path d="M97.7629 130.2925
L99.0010 130.2925
" />
<path d="M101.2867 130.9592
L101.2867 128.9592
" />
<path d="M102.1439 130.9592
L102.1439 129.9115
" />
<path d="M102.1439 129.9115
L102.0486 129.7211
" />
<path d="M102.0486 129.7211
L101.8582 129.6258
" />
<path d="M101.8582 129.6258
L101.5724 129.6258
" />
<path d="M101.5724 129.6258
L101.3820 129.7211
" />
<path d="M101.3820 129.7211
L101.2867 129.8163
" />
<path d="M103.3820 130.9592
L103.1915 130.8639
" />
<path d="M103.1915 130.8639
L103.0962 130.7687
" />
<path d="M103.0962 130.7687
L103.0010 130.5782
" />
<path d="M103.0010 130.5782
L103.0010 130.0068
" />
<path d="M103.0010 130.0068
L103.0962 129.8163
" />
<path d="M103.0962 129.8163
L103.1915 129.7211
" />
<path d="M103.1915 129.7211
L103.3820 129.6258
" />
<path d="M103.3820 129.6258
L103.6677 129.6258
" />
<path d="M103.6677 129.6258
L103.8582 129.7211
" />
<path d="M103.8582 129.7211
L103.9534 129.8163
" />
<path d="M103.9534 129.8163
L104.0486 130.0068
" />
<path d="M104.0486 130.0068
L104.0486 130.5782
" />
<path d="M104.0486 130.5782
L103.9534 130.7687
" />
<path d="M103.9534 130.7687
L103.8582 130.8639
" />
<path d="M103.8582 130.8639
L103.6677 130.9592
" />
<path d="M103.6677 130.9592
L103.3820 130.9592
" />
<path d="M105.1915 130.9592
L105.0010 130.8639
" />
<path d="M105.0010 130.8639
L104.9058 130.6734
" />
<path d="M104.9058 130.6734
L104.9058 128.9592
" />
<path d="M106.7153 130.8639
L106.5248 130.9592
" />
<path d="M106.5248 130.9592
L106.1439 130.9592
" />
<path d="M106.1439 130.9592
L105.9534 130.8639
" />
<path d="M105.9534 130.8639
L105.8582 130.6734
" />
<path d="M105.8582 130.6734
L105.8582 129.9115
" />
<path d="M105.8582 129.9115
L105.9534 129.7211
" />
<path d="M105.9534 129.7211
L106.1439 129.6258
" />
<path d="M106.1439 129.6258
L106.5248 129.6258
" />
<path d="M106.5248 129.6258
L106.7153 129.7211
" />
<path d="M106.7153 129.7211
L106.8105 129.9115
" />
<path d="M106.8105 129.9115
L106.8105 130.1020
" />
<path d="M106.8105 130.1020
L105.8582 130.2925
" />
<path d="M107.5724 130.8639
L107.7629 130.9592
" />
<path d="M107.7629 130.9592
L108.1439 130.9592
" />
<path d="M108.1439 130.9592
L108.3343 130.8639
" />
<path d="M108.3343 130.8639
L108.4296 130.6734
" />
<path d="M108.4296 130.6734
L108.4296 130.5782
" />
<path d="M108.4296 130.5782
L108.3343 130.3877
" />
<path d="M108.3343 130.3877
L108.1439 130.2925
" />
<path d="M108.1439 130.2925
L107.8582 130.2925
" />
<path d="M107.8582 130.2925
L107.6677 130.1973
" />
<path d="M107.6677 130.1973
L107.5724 130.0068
" />
<path d="M107.5724 130.0068
L107.5724 129.9115
" />
<path d="M107.5724 129.9115
L107.6677 129.7211
" />
<path d="M107.6677 129.7211
L107.8582 129.6258
" />
<path d="M107.8582 129.6258
L108.1439 129.6258
" />
<path d="M108.1439 129.6258
L108.3343 129.7211
" />
<path d="M109.0962 131.7211
L109.1915 131.6258
" />
<path d="M109.1915 131.6258
L109.3820 131.3401
" />
<path d="M109.3820 131.3401
L109.4772 131.1496
" />
<path d="M109.4772 131.1496
L109.5724 130.8639
" />
<path d="M109.5724 130.8639
L109.6677 130.3877
" />
<path d="M109.6677 130.3877
L109.6677 130.0068
" />
<path d="M109.6677 130.0068
L109.5724 129.5306
" />
<path d="M109.5724 129.5306
L109.4772 129.2449
" />
<path d="M109.4772 129.2449
L109.3820 129.0544
" />
<path d="M109.3820 129.0544
L109.1915 128.7687
" />
<path d="M109.1915 128.7687
L109.0962 128.6734
" />
<path d="M112.7153 131.7211
L112.6201 131.6258
" />
<path d="M112.6201 131.6258
L112.4296 131.3401
" />
<path d="M112.4296 131.3401
L112.3343 131.1496
" />
<path d="M112.3343 131.1496
L112.2391 130.8639
" />
<path d="M112.2391 130.8639
L112.1439 130.3877
" />
<path d="M112.1439 130.3877
L112.1439 130.0068
" />
<path d="M112.1439 130.0068
L112.2391 129.5306
" />
<path d="M112.2391 129.5306
L112.3343 129.2449
" />
<path d="M112.3343 129.2449
L112.4296 129.0544
" />
<path d="M112.4296 129.0544
L112.6201 128.7687
" />
<path d="M112.6201 128.7687
L112.7153 128.6734
" />
<path d="M113.4772 129.6258
L113.4772 130.9592
" />
<path d="M113.4772 129.8163
L113.5724 129.7211
" />
<path d="M113.5724 129.7211
L113.7629 129.6258
" />
<path d="M113.7629 129.6258
L114.0486 129.6258
" />
<path d="M114.0486 129.6258
L114.2391 129.7211
" />
<path d="M114.2391 129.7211
L114.3343 129.9115
" />
<path d="M114.3343 129.9115
L114.3343 130.9592
" />
<path d="M115.5724 130.9592
L115.3820 130.8639
" />
<path d="M115.3820 130.8639
L115.2867 130.7687
" />
<path d="M115.2867 130.7687
L115.1915 130.5782
" />
<path d="M115.1915 130.5782
L115.1915 130.0068
" />
<path d="M115.1915 130.0068
L115.2867 129.8163
" />
<path d="M115.2867 129.8163
L115.3820 129.7211
" />
<path d="M115.3820 129.7211
L115.5724 129.6258
" />
<path d="M115.5724 129.6258
L115.8582 129.6258
" />
<path d="M115.8582 129.6258
L116.0486 129.7211
" />
<path d="M116.0486 129.7211
L116.1439 129.8163
" />
<path d="M116.1439 129.8163
L116.2391 130.0068
" />
<path d="M116.2391 130.0068
L116.2391 130.5782
" />
<path d="M116.2391 130.5782
L116.1439 130.7687
" />
<path d="M116.1439 130.7687
L116.0486 130.8639
" />
<path d="M116.0486 130.8639
L115.8582 130.9592
" />
<path d="M115.8582 130.9592
L115.5724 130.9592
" />
<path d="M116.8105 129.6258
L117.5724 129.6258
" />
<path d="M117.0962 128.9592
L117.0962 130.6734
" />
<path d="M117.0962 130.6734
L117.1915 130.8639
" />
<path d="M117.1915 130.8639
L117.3820 130.9592
" />
<path d="M117.3820 130.9592
L117.5724 130.9592
" />
<path d="M119.7629 129.6258
L119.7629 131.6258
" />
<path d="M119.7629 129.7211
L119.9534 129.6258
" />
<path d="M119.9534 129.6258
L120.3343 129.6258
" />
<path d="M120.3343 129.6258
L120.5248 129.7211
" />
<path d="M120.5248 129.7211
L120.6201 129.8163
" />
<path d="M120.6201 129.8163
L120.7153 130.0068
" />
<path d="M120.7153 130.0068
L120.7153 130.5782
" />
<path d="M120.7153 130.5782
L120.6201 130.7687
" />
<path d="M120.6201 130.7687
L120.5248 130.8639
" />
<path d="M120.5248 130.8639
L120.3343 130.9592
" />
<path d="M120.3343 130.9592
L119.9534 130.9592
" />
<path d="M119.9534 130.9592
L119.7629 130.8639
" />
<path d="M121.8582 130.9592
L121.6677 130.8639
" />
<path d="M121.6677 130.8639
L121.5724 130.6734
" />
<path d="M121.5724 130.6734
L121.5724 128.9592
" />
<path d="M123.4772 130.9592
L123.4772 129.9115
" />
<path d="M123.4772 129.9115
L123.3820 129.7211
" />
<path d="M123.3820 129.7211
L123.1915 129.6258
" />
<path d="M123.1915 129.6258
L122.8105 129.6258
" />
<path d="M122.8105 129.6258
L122.6201 129.7211
" />
<path d="M123.4772 130.8639
L123.2867 130.9592
" />
<path d="M123.2867 130.9592
L122.8105 130.9592
" />
<path d="M122.8105 130.9592
L122.6201 130.8639
" />
<path d="M122.6201 130.8639
L122.5248 130.6734
" />
<path d="M122.5248 130.6734
L122.5248 130.4830
" />
<path d="M122.5248 130.4830
L122.6201 130.2925
" />
<path d="M122.6201 130.2925
L122.8105 130.1973
" />
<path d="M122.8105 130.1973
L123.2867 130.1973
" />
<path d="M123.2867 130.1973
L123.4772 130.1020
" />
<path d="M124.1439 129.6258
L124.9058 129.6258
" />
<path d="M124.4296 128.9592
L124.4296 130.6734
" />
<path d="M124.4296 130.6734
L124.5248 130.8639
" />
<path d="M124.5248 130.8639
L124.7153 130.9592
" />
<path d="M124.7153 130.9592
L124.9058 130.9592
" />
<path d="M126.3343 130.8639
L126.1439 130.9592
" />
<path d="M126.1439 130.9592
L125.7629 130.9592
" />
<path d="M125.7629 130.9592
L125.5724 130.8639
" />
<path d="M125.5724 130.8639
L125.4772 130.6734
" />
<path d="M125.4772 130.6734
L125.4772 129.9115
" />
<path d="M125.4772 129.9115
L125.5724 129.7211
" />
<path d="M125.5724 129.7211
L125.7629 129.6258
" />
<path d="M125.7629 129.6258
L126.1439 129.6258
" />
<path d="M126.1439 129.6258
L126.3343 129.7211
" />
<path d="M126.3343 129.7211
L126.4296 129.9115
" />
<path d="M126.4296 129.9115
L126.4296 130.1020
" />
<path d="M126.4296 130.1020
L125.4772 130.2925
" />
<path d="M128.1439 130.9592
L128.1439 128.9592
" />
<path d="M128.1439 130.8639
L127.9534 130.9592
" />
<path d="M127.9534 130.9592
L127.5724 130.9592
" />
<path d="M127.5724 130.9592
L127.3820 130.8639
" />
<path d="M127.3820 130.8639
L127.2867 130.7687
" />
<path d="M127.2867 130.7687
L127.1915 130.5782
" />
<path d="M127.1915 130.5782
L127.1915 130.0068
" />
<path d="M127.1915 130.0068
L127.2867 129.8163
" />
<path d="M127.2867 129.8163
L127.3820 129.7211
" />
<path d="M127.3820 129.7211
L127.5724 129.6258
" />
<path d="M127.5724 129.6258
L127.9534 129.6258
" />
<path d="M127.9534 129.6258
L128.1439 129.7211
" />
<path d="M128.9058 131.7211
L129.0010 131.6258
" />
<path d="M129.0010 131.6258
L129.1915 131.3401
" />
<path d="M129.1915 131.3401
L129.2867 131.1496
" />
<path d="M129.2867 131.1496
L129.3820 130.8639
" />
<path d="M129.3820 130.8639
L129.4772 130.3877
" />
<path d="M129.4772 130.3877
L129.4772 130.0068
" />
<path d="M129.4772 130.0068
L129.3820 129.5306
" />
<path d="M129.3820 129.5306
L129.2867 129.2449
" />
<path d="M129.2867 129.2449
L129.1915 129.0544
" />
<path d="M129.1915 129.0544
L129.0010 128.7687
" />
<path d="M129.0010 128.7687
L128.9058 128.6734
" />
</g></g> 
</svg>
