<?xml version="1.0" standalone="no"?>
 <!DOCTYPE svg PUBLIC "-//W3C//DTD SVG 1.1//EN" 
 "http://www.w3.org/Graphics/SVG/1.1/DTD/svg11.dtd"> 
<svg
  xmlns:svg="http://www.w3.org/2000/svg"
  xmlns="http://www.w3.org/2000/svg"
  xmlns:xlink="http://www.w3.org/1999/xlink"
  xmlns:inkscape="http://www.inkscape.org/namespaces/inkscape"
  version="1.1"
  width="297.0022mm" height="210.0072mm" viewBox="0.0000 0.0000 297.0022 210.0072">
<title>SVG Image created as GBAKicad-PTH-drl_map.svg date 2026-06-11T12:09:02 </title>
  <desc>Image generated by PCBNEW </desc>
<g style="fill:#000000; fill-opacity:1.0000;stroke:#000000; stroke-opacity:1.0000;
stroke-linecap:round; stroke-linejoin:round;"
 transform="translate(0 0) scale(1 1)">
</g>
<g style="fill:none; 
stroke:#000000; stroke-width:0.0655; stroke-opacity:1; 
stroke-linecap:round; stroke-linejoin:round;">
<path d="M61.3784 74.6739
L66.3070 33.2459
" />
<path d="M61.3784,74.6739 C61.3784,133.9879 93.0737,129.8130 106.2080,98.4781" />
<path d="M114.0466,11.6831 C88.7742,-2.9979 69.1515,8.3537 66.3070,33.2459" />
<path d="M136.4745 11.7094
L114.0466 11.6831
" />
<path d="M161.3404 11.7225
L136.4745 11.7094
" />
<path d="M161.3404 11.7225
L184.2140 11.7225
" />
<path d="M184.2140,11.7225 C209.4863,-2.9586 230.0136,7.5410 231.9536,33.2852" />
<path d="M190.7942 98.1570
L106.2080 98.4781
" />
<path d="M231.9536 33.2852
L235.6238 74.3528
" />
<path d="M235.6238,74.3528 C235.6238,133.6667 203.9285,129.4918 190.7942,98.1570" />
</g>
<g style="fill:none; 
stroke:#000000; stroke-width:0.1311; stroke-opacity:1; 
stroke-linecap:round; stroke-linejoin:round;">
<path d="M128.9308 74.1627
L129.1929 74.4249
" />
<path d="M129.1929 74.1627
L128.9308 74.4249
" />
<path d="M128.9308 75.7357
L129.1929 75.9978
" />
<path d="M129.1929 75.7357
L128.9308 75.9978
" />
<path d="M128.9308 77.3086
L129.1929 77.5708
" />
<path d="M129.1929 77.3086
L128.9308 77.5708
" />
<path d="M130.7659 74.1627
L131.0281 74.4249
" />
<path d="M131.0281 74.1627
L130.7659 74.4249
" />
<path d="M130.7659 75.7357
L131.0281 75.9978
" />
<path d="M131.0281 75.7357
L130.7659 75.9978
" />
<path d="M130.7659 77.3086
L131.0281 77.5708
" />
<path d="M131.0281 77.3086
L130.7659 77.5708
" />
<path d="M144.6277 22.7463
L144.8898 23.0085
" />
<path d="M144.8898 22.7463
L144.6277 23.0085
" />
<path d="M144.6277 24.5815
L144.8898 24.8436
" />
<path d="M144.8898 24.5815
L144.6277 24.8436
" />
<path d="M145.5452 21.8288
L145.8074 22.0909
" />
<path d="M145.8074 21.8288
L145.5452 22.0909
" />
<path d="M145.5452 23.6639
L145.8074 23.9261
" />
<path d="M145.8074 23.6639
L145.5452 23.9261
" />
<path d="M145.5452 25.4990
L145.8074 25.7612
" />
<path d="M145.8074 25.4990
L145.5452 25.7612
" />
<path d="M146.4628 22.7463
L146.7250 23.0085
" />
<path d="M146.7250 22.7463
L146.4628 23.0085
" />
<path d="M146.4628 24.5815
L146.7250 24.8436
" />
<path d="M146.7250 24.5815
L146.4628 24.8436
" />
<path d="M147.3804 21.8288
L147.6425 22.0909
" />
<path d="M147.6425 21.8288
L147.3804 22.0909
" />
<path d="M147.3804 23.6639
L147.6425 23.9261
" />
<path d="M147.6425 23.6639
L147.3804 23.9261
" />
<path d="M147.3804 25.4990
L147.6425 25.7612
" />
<path d="M147.6425 25.4990
L147.3804 25.7612
" />
<path d="M148.2979 22.7463
L148.5601 23.0085
" />
<path d="M148.5601 22.7463
L148.2979 23.0085
" />
<path d="M148.2979 24.5815
L148.5601 24.8436
" />
<path d="M148.5601 24.5815
L148.2979 24.8436
" />
<circle cx="83.7276" cy="20.3738" r="0.1966" /> 
<circle cx="102.3804" cy="26.4952" r="0.1966" /> 
<circle cx="102.9572" cy="31.8827" r="0.1966" /> 
<circle cx="110.7564" cy="24.5421" r="0.1966" /> 
<circle cx="113.5747" cy="40.2194" r="0.1966" /> 
<circle cx="115.0690" cy="37.5453" r="0.1966" /> 
<circle cx="115.3574" cy="55.2805" r="0.1966" /> 
<circle cx="116.6026" cy="27.8192" r="0.1966" /> 
<circle cx="117.1401" cy="33.5605" r="0.1966" /> 
<circle cx="118.0707" cy="56.0408" r="0.1966" /> 
<circle cx="118.6737" cy="65.6097" r="0.1966" /> 
<circle cx="118.8310" cy="25.4073" r="0.1966" /> 
<circle cx="121.9376" cy="76.5418" r="0.1966" /> 
<circle cx="123.4844" cy="66.4224" r="0.1966" /> 
<circle cx="124.9656" cy="76.6991" r="0.1966" /> 
<circle cx="126.5245" cy="79.6868" r="0.1966" /> 
<circle cx="126.6041" cy="67.0778" r="0.1966" /> 
<circle cx="126.7024" cy="70.3081" r="0.1966" /> 
<circle cx="128.4392" cy="79.5304" r="0.1966" /> 
<circle cx="128.9364" cy="35.1849" r="0.1966" /> 
<circle cx="131.2181" cy="59.5407" r="0.1966" /> 
<circle cx="132.2143" cy="18.6173" r="0.1966" /> 
<circle cx="133.0533" cy="67.7725" r="0.1966" /> 
<circle cx="133.6693" cy="28.7629" r="0.1966" /> 
<circle cx="133.9446" cy="26.9671" r="0.1966" /> 
<circle cx="134.3641" cy="30.7947" r="0.1966" /> 
<circle cx="134.5214" cy="22.1040" r="0.1966" /> 
<circle cx="135.3865" cy="73.3697" r="0.1966" /> 
<circle cx="135.8191" cy="20.7277" r="0.1966" /> 
<circle cx="139.2796" cy="16.2316" r="0.1966" /> 
<circle cx="139.7604" cy="89.7065" r="0.1966" /> 
<circle cx="139.9743" cy="18.8401" r="0.1966" /> 
<circle cx="142.2289" cy="45.6723" r="0.1966" /> 
<circle cx="144.4966" cy="34.5567" r="0.1966" /> 
<circle cx="145.3224" cy="85.2456" r="0.1966" /> 
<circle cx="145.4010" cy="40.0228" r="0.1966" /> 
<circle cx="145.4535" cy="28.2517" r="0.1966" /> 
<circle cx="146.7381" cy="39.8261" r="0.1966" /> 
<circle cx="148.8878" cy="39.0397" r="0.1966" /> 
<circle cx="156.0317" cy="91.7472" r="0.1966" /> 
<circle cx="157.4605" cy="23.5721" r="0.1966" /> 
<circle cx="158.2600" cy="26.6657" r="0.1966" /> 
<circle cx="160.0427" cy="64.3906" r="0.1966" /> 
<circle cx="167.0818" cy="82.4798" r="0.1966" /> 
<circle cx="171.8793" cy="72.8584" r="0.1966" /> 
<circle cx="173.7276" cy="64.4300" r="0.1966" /> 
<circle cx="175.7200" cy="72.3341" r="0.1966" /> 
<circle cx="177.5027" cy="70.6301" r="0.1966" /> 
<circle cx="177.8566" cy="83.0958" r="0.1966" /> 
<circle cx="178.3940" cy="62.2540" r="0.1966" /> 
<circle cx="179.1019" cy="26.9147" r="0.1966" /> 
<circle cx="183.3620" cy="61.3102" r="0.1966" /> 
<circle cx="185.6241" cy="58.1980" r="0.1966" /> 
<path d="M141.8488 89.1976
L141.8488 89.9841
" />
<path d="M141.4555 89.5909
L142.2420 89.5909
" />
<path d="M141.4555 88.8699
L141.4555 90.3118
" />
<path d="M141.4555 90.3118 A0.3932 0.3932 0.0 0 0 142.2420 90.3118" />
<path d="M142.2420 90.3118
L142.2420 88.8699
" />
<path d="M142.2420 88.8699 A0.3932 0.3932 0.0 0 0 141.4555 88.8699" />
<path d="M141.8488 94.6768
L141.8488 95.4633
" />
<path d="M141.4555 95.0701
L142.2420 95.0701
" />
<path d="M141.4555 94.5457
L141.4555 95.5944
" />
<path d="M141.4555 95.5944 A0.3932 0.3932 0.0 0 0 142.2420 95.5944" />
<path d="M142.2420 95.5944
L142.2420 94.5457
" />
<path d="M142.2420 94.5457 A0.3932 0.3932 0.0 0 0 141.4555 94.5457" />
<path d="M153.1741 89.1976
L153.1741 89.9841
" />
<path d="M152.7809 89.5909
L153.5674 89.5909
" />
<path d="M152.7809 88.8699
L152.7809 90.3118
" />
<path d="M152.7809 90.3118 A0.3932 0.3932 0.0 0 0 153.5674 90.3118" />
<path d="M153.5674 90.3118
L153.5674 88.8699
" />
<path d="M153.5674 88.8699 A0.3932 0.3932 0.0 0 0 152.7809 88.8699" />
<path d="M153.1741 94.6768
L153.1741 95.4633
" />
<path d="M152.7809 95.0701
L153.5674 95.0701
" />
<path d="M152.7809 94.5457
L152.7809 95.5944
" />
<path d="M152.7809 95.5944 A0.3932 0.3932 0.0 0 0 153.5674 95.5944" />
<path d="M153.5674 95.5944
L153.5674 94.5457
" />
<path d="M153.5674 94.5457 A0.3932 0.3932 0.0 0 0 152.7809 94.5457" />
<path style="fill:none; 
stroke:#000000; stroke-width:0.1311; stroke-opacity:1; 
stroke-linecap:round; stroke-linejoin:round;fill:none"
d="M 118.8357,89.4317
118.8357,88.5048
117.9088,88.5048
117.9088,89.4317
Z" /> 
<path style="fill:none; 
stroke:#000000; stroke-width:0.1311; stroke-opacity:1; 
stroke-linecap:round; stroke-linejoin:round;fill:none"
d="M 122.1651,89.4317
122.1651,88.5048
121.2382,88.5048
121.2382,89.4317
Z" /> 
<path style="fill:none; 
stroke:#000000; stroke-width:0.1311; stroke-opacity:1; 
stroke-linecap:round; stroke-linejoin:round;fill:none"
d="M 124.5770,44.9429
124.5770,44.0161
123.6501,44.0161
123.6501,44.9429
Z" /> 
<path style="fill:none; 
stroke:#000000; stroke-width:0.1311; stroke-opacity:1; 
stroke-linecap:round; stroke-linejoin:round;fill:none"
d="M 124.5770,48.2724
124.5770,47.3455
123.6501,47.3455
123.6501,48.2724
Z" /> 
<path style="fill:none; 
stroke:#000000; stroke-width:0.1311; stroke-opacity:1; 
stroke-linecap:round; stroke-linejoin:round;fill:none"
d="M 124.5770,51.6018
124.5770,50.6750
123.6501,50.6750
123.6501,51.6018
Z" /> 
<path style="fill:none; 
stroke:#000000; stroke-width:0.1311; stroke-opacity:1; 
stroke-linecap:round; stroke-linejoin:round;fill:none"
d="M 124.5770,54.9313
124.5770,54.0044
123.6501,54.0044
123.6501,54.9313
Z" /> 
<path style="fill:none; 
stroke:#000000; stroke-width:0.1311; stroke-opacity:1; 
stroke-linecap:round; stroke-linejoin:round;fill:none"
d="M 125.4946,89.4317
125.4946,88.5048
124.5677,88.5048
124.5677,89.4317
Z" /> 
<path style="fill:none; 
stroke:#000000; stroke-width:0.1442; stroke-opacity:1; 
stroke-linecap:round; stroke-linejoin:round;fill:none"
d="M 72.6644,34.9303
73.3854,34.2093
72.6644,33.4884
71.9435,34.2093
Z" /> 
<path style="fill:none; 
stroke:#000000; stroke-width:0.1442; stroke-opacity:1; 
stroke-linecap:round; stroke-linejoin:round;fill:none"
d="M 72.6644,46.0721
73.3854,45.3512
72.6644,44.6302
71.9435,45.3512
Z" /> 
<path style="fill:none; 
stroke:#000000; stroke-width:0.1442; stroke-opacity:1; 
stroke-linecap:round; stroke-linejoin:round;fill:none"
d="M 78.5631,34.9303
79.2840,34.2093
78.5631,33.4884
77.8421,34.2093
Z" /> 
<path style="fill:none; 
stroke:#000000; stroke-width:0.1442; stroke-opacity:1; 
stroke-linecap:round; stroke-linejoin:round;fill:none"
d="M 78.5631,46.0721
79.2840,45.3512
78.5631,44.6302
77.8421,45.3512
Z" /> 
<path style="fill:none; 
stroke:#000000; stroke-width:0.1442; stroke-opacity:1; 
stroke-linecap:round; stroke-linejoin:round;fill:none"
d="M 83.1509,24.4438
83.8718,23.7229
83.1509,23.0019
82.4299,23.7229
Z" /> 
<path style="fill:none; 
stroke:#000000; stroke-width:0.1442; stroke-opacity:1; 
stroke-linecap:round; stroke-linejoin:round;fill:none"
d="M 83.1509,30.3425
83.8718,29.6215
83.1509,28.9006
82.4299,29.6215
Z" /> 
<path style="fill:none; 
stroke:#000000; stroke-width:0.1442; stroke-opacity:1; 
stroke-linecap:round; stroke-linejoin:round;fill:none"
d="M 83.1509,50.6600
83.8718,49.9390
83.1509,49.2181
82.4299,49.9390
Z" /> 
<path style="fill:none; 
stroke:#000000; stroke-width:0.1442; stroke-opacity:1; 
stroke-linecap:round; stroke-linejoin:round;fill:none"
d="M 83.1509,56.5586
83.8718,55.8376
83.1509,55.1167
82.4299,55.8376
Z" /> 
<path style="fill:none; 
stroke:#000000; stroke-width:0.1442; stroke-opacity:1; 
stroke-linecap:round; stroke-linejoin:round;fill:none"
d="M 94.2927,24.4438
95.0137,23.7229
94.2927,23.0019
93.5718,23.7229
Z" /> 
<path style="fill:none; 
stroke:#000000; stroke-width:0.1442; stroke-opacity:1; 
stroke-linecap:round; stroke-linejoin:round;fill:none"
d="M 94.2927,30.3425
95.0137,29.6215
94.2927,28.9006
93.5718,29.6215
Z" /> 
<path style="fill:none; 
stroke:#000000; stroke-width:0.1442; stroke-opacity:1; 
stroke-linecap:round; stroke-linejoin:round;fill:none"
d="M 94.2927,50.6600
95.0137,49.9390
94.2927,49.2181
93.5718,49.9390
Z" /> 
<path style="fill:none; 
stroke:#000000; stroke-width:0.1442; stroke-opacity:1; 
stroke-linecap:round; stroke-linejoin:round;fill:none"
d="M 94.2927,56.5586
95.0137,55.8376
94.2927,55.1167
93.5718,55.8376
Z" /> 
<path style="fill:none; 
stroke:#000000; stroke-width:0.1442; stroke-opacity:1; 
stroke-linecap:round; stroke-linejoin:round;fill:none"
d="M 98.8805,34.9303
99.6015,34.2093
98.8805,33.4884
98.1596,34.2093
Z" /> 
<path style="fill:none; 
stroke:#000000; stroke-width:0.1442; stroke-opacity:1; 
stroke-linecap:round; stroke-linejoin:round;fill:none"
d="M 98.8805,46.0721
99.6015,45.3512
98.8805,44.6302
98.1596,45.3512
Z" /> 
<path style="fill:none; 
stroke:#000000; stroke-width:0.1442; stroke-opacity:1; 
stroke-linecap:round; stroke-linejoin:round;fill:none"
d="M 102.8130,70.6497
103.5339,69.9288
102.8130,69.2079
102.0920,69.9288
Z" /> 
<path style="fill:none; 
stroke:#000000; stroke-width:0.1442; stroke-opacity:1; 
stroke-linecap:round; stroke-linejoin:round;fill:none"
d="M 102.8130,76.5484
103.5339,75.8274
102.8130,75.1065
102.0920,75.8274
Z" /> 
<path style="fill:none; 
stroke:#000000; stroke-width:0.1442; stroke-opacity:1; 
stroke-linecap:round; stroke-linejoin:round;fill:none"
d="M 104.7792,34.9303
105.5001,34.2093
104.7792,33.4884
104.0582,34.2093
Z" /> 
<path style="fill:none; 
stroke:#000000; stroke-width:0.1442; stroke-opacity:1; 
stroke-linecap:round; stroke-linejoin:round;fill:none"
d="M 104.7792,46.0721
105.5001,45.3512
104.7792,44.6302
104.0582,45.3512
Z" /> 
<path style="fill:none; 
stroke:#000000; stroke-width:0.1442; stroke-opacity:1; 
stroke-linecap:round; stroke-linejoin:round;fill:none"
d="M 113.9548,70.6497
114.6758,69.9288
113.9548,69.2079
113.2339,69.9288
Z" /> 
<path style="fill:none; 
stroke:#000000; stroke-width:0.1442; stroke-opacity:1; 
stroke-linecap:round; stroke-linejoin:round;fill:none"
d="M 113.9548,76.5484
114.6758,75.8274
113.9548,75.1065
113.2339,75.8274
Z" /> 
<path style="fill:none; 
stroke:#000000; stroke-width:0.1442; stroke-opacity:1; 
stroke-linecap:round; stroke-linejoin:round;fill:none"
d="M 142.0061,71.4362
142.7270,70.7153
142.0061,69.9943
141.2851,70.7153
Z" /> 
<path style="fill:none; 
stroke:#000000; stroke-width:0.1442; stroke-opacity:1; 
stroke-linecap:round; stroke-linejoin:round;fill:none"
d="M 142.0061,77.3348
142.7270,76.6139
142.0061,75.8930
141.2851,76.6139
Z" /> 
<path style="fill:none; 
stroke:#000000; stroke-width:0.1442; stroke-opacity:1; 
stroke-linecap:round; stroke-linejoin:round;fill:none"
d="M 153.1479,71.4362
153.8689,70.7153
153.1479,69.9943
152.4270,70.7153
Z" /> 
<path style="fill:none; 
stroke:#000000; stroke-width:0.1442; stroke-opacity:1; 
stroke-linecap:round; stroke-linejoin:round;fill:none"
d="M 153.1479,77.3348
153.8689,76.6139
153.1479,75.8930
152.4270,76.6139
Z" /> 
<path style="fill:none; 
stroke:#000000; stroke-width:0.1442; stroke-opacity:1; 
stroke-linecap:round; stroke-linejoin:round;fill:none"
d="M 180.2816,71.4362
181.0025,70.7153
180.2816,69.9943
179.5606,70.7153
Z" /> 
<path style="fill:none; 
stroke:#000000; stroke-width:0.1442; stroke-opacity:1; 
stroke-linecap:round; stroke-linejoin:round;fill:none"
d="M 180.2816,77.3348
181.0025,76.6139
180.2816,75.8930
179.5606,76.6139
Z" /> 
<path style="fill:none; 
stroke:#000000; stroke-width:0.1442; stroke-opacity:1; 
stroke-linecap:round; stroke-linejoin:round;fill:none"
d="M 190.6370,34.9303
191.3579,34.2093
190.6370,33.4884
189.9160,34.2093
Z" /> 
<path style="fill:none; 
stroke:#000000; stroke-width:0.1442; stroke-opacity:1; 
stroke-linecap:round; stroke-linejoin:round;fill:none"
d="M 190.6370,46.0721
191.3579,45.3512
190.6370,44.6302
189.9160,45.3512
Z" /> 
<path style="fill:none; 
stroke:#000000; stroke-width:0.1442; stroke-opacity:1; 
stroke-linecap:round; stroke-linejoin:round;fill:none"
d="M 191.4234,71.4362
192.1444,70.7153
191.4234,69.9943
190.7025,70.7153
Z" /> 
<path style="fill:none; 
stroke:#000000; stroke-width:0.1442; stroke-opacity:1; 
stroke-linecap:round; stroke-linejoin:round;fill:none"
d="M 191.4234,77.3348
192.1444,76.6139
191.4234,75.8930
190.7025,76.6139
Z" /> 
<path style="fill:none; 
stroke:#000000; stroke-width:0.1442; stroke-opacity:1; 
stroke-linecap:round; stroke-linejoin:round;fill:none"
d="M 196.5356,34.9303
197.2565,34.2093
196.5356,33.4884
195.8146,34.2093
Z" /> 
<path style="fill:none; 
stroke:#000000; stroke-width:0.1442; stroke-opacity:1; 
stroke-linecap:round; stroke-linejoin:round;fill:none"
d="M 196.5356,46.0721
197.2565,45.3512
196.5356,44.6302
195.8146,45.3512
Z" /> 
<path style="fill:none; 
stroke:#000000; stroke-width:0.1442; stroke-opacity:1; 
stroke-linecap:round; stroke-linejoin:round;fill:none"
d="M 201.1234,24.4438
201.8443,23.7229
201.1234,23.0019
200.4025,23.7229
Z" /> 
<path style="fill:none; 
stroke:#000000; stroke-width:0.1442; stroke-opacity:1; 
stroke-linecap:round; stroke-linejoin:round;fill:none"
d="M 201.1234,30.3425
201.8443,29.6215
201.1234,28.9006
200.4025,29.6215
Z" /> 
<path style="fill:none; 
stroke:#000000; stroke-width:0.1442; stroke-opacity:1; 
stroke-linecap:round; stroke-linejoin:round;fill:none"
d="M 201.1234,50.6600
201.8443,49.9390
201.1234,49.2181
200.4025,49.9390
Z" /> 
<path style="fill:none; 
stroke:#000000; stroke-width:0.1442; stroke-opacity:1; 
stroke-linecap:round; stroke-linejoin:round;fill:none"
d="M 201.1234,56.5586
201.8443,55.8376
201.1234,55.1167
200.4025,55.8376
Z" /> 
<path style="fill:none; 
stroke:#000000; stroke-width:0.1442; stroke-opacity:1; 
stroke-linecap:round; stroke-linejoin:round;fill:none"
d="M 212.2652,24.4438
212.9862,23.7229
212.2652,23.0019
211.5443,23.7229
Z" /> 
<path style="fill:none; 
stroke:#000000; stroke-width:0.1442; stroke-opacity:1; 
stroke-linecap:round; stroke-linejoin:round;fill:none"
d="M 212.2652,30.3425
212.9862,29.6215
212.2652,28.9006
211.5443,29.6215
Z" /> 
<path style="fill:none; 
stroke:#000000; stroke-width:0.1442; stroke-opacity:1; 
stroke-linecap:round; stroke-linejoin:round;fill:none"
d="M 212.2652,50.6600
212.9862,49.9390
212.2652,49.2181
211.5443,49.9390
Z" /> 
<path style="fill:none; 
stroke:#000000; stroke-width:0.1442; stroke-opacity:1; 
stroke-linecap:round; stroke-linejoin:round;fill:none"
d="M 212.2652,56.5586
212.9862,55.8376
212.2652,55.1167
211.5443,55.8376
Z" /> 
<path style="fill:none; 
stroke:#000000; stroke-width:0.1442; stroke-opacity:1; 
stroke-linecap:round; stroke-linejoin:round;fill:none"
d="M 216.8531,34.9303
217.5740,34.2093
216.8531,33.4884
216.1321,34.2093
Z" /> 
<path style="fill:none; 
stroke:#000000; stroke-width:0.1442; stroke-opacity:1; 
stroke-linecap:round; stroke-linejoin:round;fill:none"
d="M 216.8531,46.0721
217.5740,45.3512
216.8531,44.6302
216.1321,45.3512
Z" /> 
<path style="fill:none; 
stroke:#000000; stroke-width:0.1442; stroke-opacity:1; 
stroke-linecap:round; stroke-linejoin:round;fill:none"
d="M 222.7517,34.9303
223.4726,34.2093
222.7517,33.4884
222.0308,34.2093
Z" /> 
<path style="fill:none; 
stroke:#000000; stroke-width:0.1442; stroke-opacity:1; 
stroke-linecap:round; stroke-linejoin:round;fill:none"
d="M 222.7517,46.0721
223.4726,45.3512
222.7517,44.6302
222.0308,45.3512
Z" /> 
</g>
<g style="fill:none; 
stroke:#000000; stroke-width:0.2000; stroke-opacity:1; 
stroke-linecap:round; stroke-linejoin:round;">
<text x="63.3456" y="124.2043"
textLength="14.8667" font-size="2.6667" lengthAdjust="spacingAndGlyphs"
text-anchor="start" opacity="0" stroke-opacity="0">Drill Map:</text>
<g class="stroked-text"><desc>Drill Map:</desc>
<path d="M63.9534 124.1192
L63.9534 122.1192
" />
<path d="M63.9534 122.1192
L64.4296 122.1192
" />
<path d="M64.4296 122.1192
L64.7153 122.2144
" />
<path d="M64.7153 122.2144
L64.9058 122.4049
" />
<path d="M64.9058 122.4049
L65.0010 122.5953
" />
<path d="M65.0010 122.5953
L65.0962 122.9763
" />
<path d="M65.0962 122.9763
L65.0962 123.2620
" />
<path d="M65.0962 123.2620
L65.0010 123.6430
" />
<path d="M65.0010 123.6430
L64.9058 123.8334
" />
<path d="M64.9058 123.8334
L64.7153 124.0239
" />
<path d="M64.7153 124.0239
L64.4296 124.1192
" />
<path d="M64.4296 124.1192
L63.9534 124.1192
" />
<path d="M65.9534 124.1192
L65.9534 122.7858
" />
<path d="M65.9534 123.1668
L66.0486 122.9763
" />
<path d="M66.0486 122.9763
L66.1439 122.8811
" />
<path d="M66.1439 122.8811
L66.3343 122.7858
" />
<path d="M66.3343 122.7858
L66.5248 122.7858
" />
<path d="M67.1915 124.1192
L67.1915 122.7858
" />
<path d="M67.1915 122.1192
L67.0962 122.2144
" />
<path d="M67.0962 122.2144
L67.1915 122.3096
" />
<path d="M67.1915 122.3096
L67.2867 122.2144
" />
<path d="M67.2867 122.2144
L67.1915 122.1192
" />
<path d="M67.1915 122.1192
L67.1915 122.3096
" />
<path d="M68.4296 124.1192
L68.2391 124.0239
" />
<path d="M68.2391 124.0239
L68.1439 123.8334
" />
<path d="M68.1439 123.8334
L68.1439 122.1192
" />
<path d="M69.4772 124.1192
L69.2867 124.0239
" />
<path d="M69.2867 124.0239
L69.1915 123.8334
" />
<path d="M69.1915 123.8334
L69.1915 122.1192
" />
<path d="M71.7629 124.1192
L71.7629 122.1192
" />
<path d="M71.7629 122.1192
L72.4296 123.5477
" />
<path d="M72.4296 123.5477
L73.0962 122.1192
" />
<path d="M73.0962 122.1192
L73.0962 124.1192
" />
<path d="M74.9058 124.1192
L74.9058 123.0715
" />
<path d="M74.9058 123.0715
L74.8105 122.8811
" />
<path d="M74.8105 122.8811
L74.6201 122.7858
" />
<path d="M74.6201 122.7858
L74.2391 122.7858
" />
<path d="M74.2391 122.7858
L74.0486 122.8811
" />
<path d="M74.9058 124.0239
L74.7153 124.1192
" />
<path d="M74.7153 124.1192
L74.2391 124.1192
" />
<path d="M74.2391 124.1192
L74.0486 124.0239
" />
<path d="M74.0486 124.0239
L73.9534 123.8334
" />
<path d="M73.9534 123.8334
L73.9534 123.6430
" />
<path d="M73.9534 123.6430
L74.0486 123.4525
" />
<path d="M74.0486 123.4525
L74.2391 123.3573
" />
<path d="M74.2391 123.3573
L74.7153 123.3573
" />
<path d="M74.7153 123.3573
L74.9058 123.2620
" />
<path d="M75.8582 122.7858
L75.8582 124.7858
" />
<path d="M75.8582 122.8811
L76.0486 122.7858
" />
<path d="M76.0486 122.7858
L76.4296 122.7858
" />
<path d="M76.4296 122.7858
L76.6201 122.8811
" />
<path d="M76.6201 122.8811
L76.7153 122.9763
" />
<path d="M76.7153 122.9763
L76.8105 123.1668
" />
<path d="M76.8105 123.1668
L76.8105 123.7382
" />
<path d="M76.8105 123.7382
L76.7153 123.9287
" />
<path d="M76.7153 123.9287
L76.6201 124.0239
" />
<path d="M76.6201 124.0239
L76.4296 124.1192
" />
<path d="M76.4296 124.1192
L76.0486 124.1192
" />
<path d="M76.0486 124.1192
L75.8582 124.0239
" />
<path d="M77.6677 123.9287
L77.7629 124.0239
" />
<path d="M77.7629 124.0239
L77.6677 124.1192
" />
<path d="M77.6677 124.1192
L77.5724 124.0239
" />
<path d="M77.5724 124.0239
L77.6677 123.9287
" />
<path d="M77.6677 123.9287
L77.6677 124.1192
" />
<path d="M77.6677 122.8811
L77.7629 122.9763
" />
<path d="M77.7629 122.9763
L77.6677 123.0715
" />
<path d="M77.6677 123.0715
L77.5724 122.9763
" />
<path d="M77.5724 122.9763
L77.6677 122.8811
" />
<path d="M77.6677 122.8811
L77.6677 123.0715
" />
</g></g>
<g style="fill:none; 
stroke:#000000; stroke-width:0.1311; stroke-opacity:1; 
stroke-linecap:round; stroke-linejoin:round;">
<path d="M61.0835 127.2732
L61.3456 127.5354
" />
<path d="M61.3456 127.2732
L61.0835 127.5354
" />
</g>
<g style="fill:none; 
stroke:#000000; stroke-width:0.2000; stroke-opacity:1; 
stroke-linecap:round; stroke-linejoin:round;">
<text x="63.3456" y="128.4043"
textLength="48.7714" font-size="2.6667" lengthAdjust="spacingAndGlyphs"
text-anchor="start" opacity="0" stroke-opacity="0">0.200mm / 0.0079" (18 holes)</text>
<g class="stroked-text"><desc>0.200mm / 0.0079" (18 holes)</desc>
<path d="M64.3343 126.3192
L64.5248 126.3192
" />
<path d="M64.5248 126.3192
L64.7153 126.4144
" />
<path d="M64.7153 126.4144
L64.8105 126.5096
" />
<path d="M64.8105 126.5096
L64.9058 126.7001
" />
<path d="M64.9058 126.7001
L65.0010 127.0811
" />
<path d="M65.0010 127.0811
L65.0010 127.5573
" />
<path d="M65.0010 127.5573
L64.9058 127.9382
" />
<path d="M64.9058 127.9382
L64.8105 128.1287
" />
<path d="M64.8105 128.1287
L64.7153 128.2239
" />
<path d="M64.7153 128.2239
L64.5248 128.3192
" />
<path d="M64.5248 128.3192
L64.3343 128.3192
" />
<path d="M64.3343 128.3192
L64.1439 128.2239
" />
<path d="M64.1439 128.2239
L64.0486 128.1287
" />
<path d="M64.0486 128.1287
L63.9534 127.9382
" />
<path d="M63.9534 127.9382
L63.8582 127.5573
" />
<path d="M63.8582 127.5573
L63.8582 127.0811
" />
<path d="M63.8582 127.0811
L63.9534 126.7001
" />
<path d="M63.9534 126.7001
L64.0486 126.5096
" />
<path d="M64.0486 126.5096
L64.1439 126.4144
" />
<path d="M64.1439 126.4144
L64.3343 126.3192
" />
<path d="M65.8582 128.1287
L65.9534 128.2239
" />
<path d="M65.9534 128.2239
L65.8582 128.3192
" />
<path d="M65.8582 128.3192
L65.7629 128.2239
" />
<path d="M65.7629 128.2239
L65.8582 128.1287
" />
<path d="M65.8582 128.1287
L65.8582 128.3192
" />
<path d="M66.7153 126.5096
L66.8105 126.4144
" />
<path d="M66.8105 126.4144
L67.0010 126.3192
" />
<path d="M67.0010 126.3192
L67.4772 126.3192
" />
<path d="M67.4772 126.3192
L67.6677 126.4144
" />
<path d="M67.6677 126.4144
L67.7629 126.5096
" />
<path d="M67.7629 126.5096
L67.8582 126.7001
" />
<path d="M67.8582 126.7001
L67.8582 126.8906
" />
<path d="M67.8582 126.8906
L67.7629 127.1763
" />
<path d="M67.7629 127.1763
L66.6201 128.3192
" />
<path d="M66.6201 128.3192
L67.8582 128.3192
" />
<path d="M69.0962 126.3192
L69.2867 126.3192
" />
<path d="M69.2867 126.3192
L69.4772 126.4144
" />
<path d="M69.4772 126.4144
L69.5724 126.5096
" />
<path d="M69.5724 126.5096
L69.6677 126.7001
" />
<path d="M69.6677 126.7001
L69.7629 127.0811
" />
<path d="M69.7629 127.0811
L69.7629 127.5573
" />
<path d="M69.7629 127.5573
L69.6677 127.9382
" />
<path d="M69.6677 127.9382
L69.5724 128.1287
" />
<path d="M69.5724 128.1287
L69.4772 128.2239
" />
<path d="M69.4772 128.2239
L69.2867 128.3192
" />
<path d="M69.2867 128.3192
L69.0962 128.3192
" />
<path d="M69.0962 128.3192
L68.9058 128.2239
" />
<path d="M68.9058 128.2239
L68.8105 128.1287
" />
<path d="M68.8105 128.1287
L68.7153 127.9382
" />
<path d="M68.7153 127.9382
L68.6201 127.5573
" />
<path d="M68.6201 127.5573
L68.6201 127.0811
" />
<path d="M68.6201 127.0811
L68.7153 126.7001
" />
<path d="M68.7153 126.7001
L68.8105 126.5096
" />
<path d="M68.8105 126.5096
L68.9058 126.4144
" />
<path d="M68.9058 126.4144
L69.0962 126.3192
" />
<path d="M71.0010 126.3192
L71.1915 126.3192
" />
<path d="M71.1915 126.3192
L71.3820 126.4144
" />
<path d="M71.3820 126.4144
L71.4772 126.5096
" />
<path d="M71.4772 126.5096
L71.5724 126.7001
" />
<path d="M71.5724 126.7001
L71.6677 127.0811
" />
<path d="M71.6677 127.0811
L71.6677 127.5573
" />
<path d="M71.6677 127.5573
L71.5724 127.9382
" />
<path d="M71.5724 127.9382
L71.4772 128.1287
" />
<path d="M71.4772 128.1287
L71.3820 128.2239
" />
<path d="M71.3820 128.2239
L71.1915 128.3192
" />
<path d="M71.1915 128.3192
L71.0010 128.3192
" />
<path d="M71.0010 128.3192
L70.8105 128.2239
" />
<path d="M70.8105 128.2239
L70.7153 128.1287
" />
<path d="M70.7153 128.1287
L70.6201 127.9382
" />
<path d="M70.6201 127.9382
L70.5248 127.5573
" />
<path d="M70.5248 127.5573
L70.5248 127.0811
" />
<path d="M70.5248 127.0811
L70.6201 126.7001
" />
<path d="M70.6201 126.7001
L70.7153 126.5096
" />
<path d="M70.7153 126.5096
L70.8105 126.4144
" />
<path d="M70.8105 126.4144
L71.0010 126.3192
" />
<path d="M72.5248 128.3192
L72.5248 126.9858
" />
<path d="M72.5248 127.1763
L72.6201 127.0811
" />
<path d="M72.6201 127.0811
L72.8105 126.9858
" />
<path d="M72.8105 126.9858
L73.0962 126.9858
" />
<path d="M73.0962 126.9858
L73.2867 127.0811
" />
<path d="M73.2867 127.0811
L73.3820 127.2715
" />
<path d="M73.3820 127.2715
L73.3820 128.3192
" />
<path d="M73.3820 127.2715
L73.4772 127.0811
" />
<path d="M73.4772 127.0811
L73.6677 126.9858
" />
<path d="M73.6677 126.9858
L73.9534 126.9858
" />
<path d="M73.9534 126.9858
L74.1439 127.0811
" />
<path d="M74.1439 127.0811
L74.2391 127.2715
" />
<path d="M74.2391 127.2715
L74.2391 128.3192
" />
<path d="M75.1915 128.3192
L75.1915 126.9858
" />
<path d="M75.1915 127.1763
L75.2867 127.0811
" />
<path d="M75.2867 127.0811
L75.4772 126.9858
" />
<path d="M75.4772 126.9858
L75.7629 126.9858
" />
<path d="M75.7629 126.9858
L75.9534 127.0811
" />
<path d="M75.9534 127.0811
L76.0486 127.2715
" />
<path d="M76.0486 127.2715
L76.0486 128.3192
" />
<path d="M76.0486 127.2715
L76.1439 127.0811
" />
<path d="M76.1439 127.0811
L76.3343 126.9858
" />
<path d="M76.3343 126.9858
L76.6201 126.9858
" />
<path d="M76.6201 126.9858
L76.8105 127.0811
" />
<path d="M76.8105 127.0811
L76.9058 127.2715
" />
<path d="M76.9058 127.2715
L76.9058 128.3192
" />
<path d="M80.8105 126.2239
L79.0962 128.7953
" />
<path d="M83.3820 126.3192
L83.5724 126.3192
" />
<path d="M83.5724 126.3192
L83.7629 126.4144
" />
<path d="M83.7629 126.4144
L83.8582 126.5096
" />
<path d="M83.8582 126.5096
L83.9534 126.7001
" />
<path d="M83.9534 126.7001
L84.0486 127.0811
" />
<path d="M84.0486 127.0811
L84.0486 127.5573
" />
<path d="M84.0486 127.5573
L83.9534 127.9382
" />
<path d="M83.9534 127.9382
L83.8582 128.1287
" />
<path d="M83.8582 128.1287
L83.7629 128.2239
" />
<path d="M83.7629 128.2239
L83.5724 128.3192
" />
<path d="M83.5724 128.3192
L83.3820 128.3192
" />
<path d="M83.3820 128.3192
L83.1915 128.2239
" />
<path d="M83.1915 128.2239
L83.0962 128.1287
" />
<path d="M83.0962 128.1287
L83.0010 127.9382
" />
<path d="M83.0010 127.9382
L82.9058 127.5573
" />
<path d="M82.9058 127.5573
L82.9058 127.0811
" />
<path d="M82.9058 127.0811
L83.0010 126.7001
" />
<path d="M83.0010 126.7001
L83.0962 126.5096
" />
<path d="M83.0962 126.5096
L83.1915 126.4144
" />
<path d="M83.1915 126.4144
L83.3820 126.3192
" />
<path d="M84.9058 128.1287
L85.0010 128.2239
" />
<path d="M85.0010 128.2239
L84.9058 128.3192
" />
<path d="M84.9058 128.3192
L84.8105 128.2239
" />
<path d="M84.8105 128.2239
L84.9058 128.1287
" />
<path d="M84.9058 128.1287
L84.9058 128.3192
" />
<path d="M86.2391 126.3192
L86.4296 126.3192
" />
<path d="M86.4296 126.3192
L86.6201 126.4144
" />
<path d="M86.6201 126.4144
L86.7153 126.5096
" />
<path d="M86.7153 126.5096
L86.8105 126.7001
" />
<path d="M86.8105 126.7001
L86.9058 127.0811
" />
<path d="M86.9058 127.0811
L86.9058 127.5573
" />
<path d="M86.9058 127.5573
L86.8105 127.9382
" />
<path d="M86.8105 127.9382
L86.7153 128.1287
" />
<path d="M86.7153 128.1287
L86.6201 128.2239
" />
<path d="M86.6201 128.2239
L86.4296 128.3192
" />
<path d="M86.4296 128.3192
L86.2391 128.3192
" />
<path d="M86.2391 128.3192
L86.0486 128.2239
" />
<path d="M86.0486 128.2239
L85.9534 128.1287
" />
<path d="M85.9534 128.1287
L85.8582 127.9382
" />
<path d="M85.8582 127.9382
L85.7629 127.5573
" />
<path d="M85.7629 127.5573
L85.7629 127.0811
" />
<path d="M85.7629 127.0811
L85.8582 126.7001
" />
<path d="M85.8582 126.7001
L85.9534 126.5096
" />
<path d="M85.9534 126.5096
L86.0486 126.4144
" />
<path d="M86.0486 126.4144
L86.2391 126.3192
" />
<path d="M88.1439 126.3192
L88.3343 126.3192
" />
<path d="M88.3343 126.3192
L88.5248 126.4144
" />
<path d="M88.5248 126.4144
L88.6201 126.5096
" />
<path d="M88.6201 126.5096
L88.7153 126.7001
" />
<path d="M88.7153 126.7001
L88.8105 127.0811
" />
<path d="M88.8105 127.0811
L88.8105 127.5573
" />
<path d="M88.8105 127.5573
L88.7153 127.9382
" />
<path d="M88.7153 127.9382
L88.6201 128.1287
" />
<path d="M88.6201 128.1287
L88.5248 128.2239
" />
<path d="M88.5248 128.2239
L88.3343 128.3192
" />
<path d="M88.3343 128.3192
L88.1439 128.3192
" />
<path d="M88.1439 128.3192
L87.9534 128.2239
" />
<path d="M87.9534 128.2239
L87.8582 128.1287
" />
<path d="M87.8582 128.1287
L87.7629 127.9382
" />
<path d="M87.7629 127.9382
L87.6677 127.5573
" />
<path d="M87.6677 127.5573
L87.6677 127.0811
" />
<path d="M87.6677 127.0811
L87.7629 126.7001
" />
<path d="M87.7629 126.7001
L87.8582 126.5096
" />
<path d="M87.8582 126.5096
L87.9534 126.4144
" />
<path d="M87.9534 126.4144
L88.1439 126.3192
" />
<path d="M89.4772 126.3192
L90.8105 126.3192
" />
<path d="M90.8105 126.3192
L89.9534 128.3192
" />
<path d="M91.6677 128.3192
L92.0486 128.3192
" />
<path d="M92.0486 128.3192
L92.2391 128.2239
" />
<path d="M92.2391 128.2239
L92.3343 128.1287
" />
<path d="M92.3343 128.1287
L92.5248 127.8430
" />
<path d="M92.5248 127.8430
L92.6201 127.4620
" />
<path d="M92.6201 127.4620
L92.6201 126.7001
" />
<path d="M92.6201 126.7001
L92.5248 126.5096
" />
<path d="M92.5248 126.5096
L92.4296 126.4144
" />
<path d="M92.4296 126.4144
L92.2391 126.3192
" />
<path d="M92.2391 126.3192
L91.8582 126.3192
" />
<path d="M91.8582 126.3192
L91.6677 126.4144
" />
<path d="M91.6677 126.4144
L91.5724 126.5096
" />
<path d="M91.5724 126.5096
L91.4772 126.7001
" />
<path d="M91.4772 126.7001
L91.4772 127.1763
" />
<path d="M91.4772 127.1763
L91.5724 127.3668
" />
<path d="M91.5724 127.3668
L91.6677 127.4620
" />
<path d="M91.6677 127.4620
L91.8582 127.5573
" />
<path d="M91.8582 127.5573
L92.2391 127.5573
" />
<path d="M92.2391 127.5573
L92.4296 127.4620
" />
<path d="M92.4296 127.4620
L92.5248 127.3668
" />
<path d="M92.5248 127.3668
L92.6201 127.1763
" />
<path d="M93.3820 126.3192
L93.3820 126.7001
" />
<path d="M94.1439 126.3192
L94.1439 126.7001
" />
<path d="M97.0962 129.0811
L97.0010 128.9858
" />
<path d="M97.0010 128.9858
L96.8105 128.7001
" />
<path d="M96.8105 128.7001
L96.7153 128.5096
" />
<path d="M96.7153 128.5096
L96.6201 128.2239
" />
<path d="M96.6201 128.2239
L96.5248 127.7477
" />
<path d="M96.5248 127.7477
L96.5248 127.3668
" />
<path d="M96.5248 127.3668
L96.6201 126.8906
" />
<path d="M96.6201 126.8906
L96.7153 126.6049
" />
<path d="M96.7153 126.6049
L96.8105 126.4144
" />
<path d="M96.8105 126.4144
L97.0010 126.1287
" />
<path d="M97.0010 126.1287
L97.0962 126.0334
" />
<path d="M98.9058 128.3192
L97.7629 128.3192
" />
<path d="M98.3343 128.3192
L98.3343 126.3192
" />
<path d="M98.3343 126.3192
L98.1439 126.6049
" />
<path d="M98.1439 126.6049
L97.9534 126.7953
" />
<path d="M97.9534 126.7953
L97.7629 126.8906
" />
<path d="M100.0486 127.1763
L99.8582 127.0811
" />
<path d="M99.8582 127.0811
L99.7629 126.9858
" />
<path d="M99.7629 126.9858
L99.6677 126.7953
" />
<path d="M99.6677 126.7953
L99.6677 126.7001
" />
<path d="M99.6677 126.7001
L99.7629 126.5096
" />
<path d="M99.7629 126.5096
L99.8582 126.4144
" />
<path d="M99.8582 126.4144
L100.0486 126.3192
" />
<path d="M100.0486 126.3192
L100.4296 126.3192
" />
<path d="M100.4296 126.3192
L100.6201 126.4144
" />
<path d="M100.6201 126.4144
L100.7153 126.5096
" />
<path d="M100.7153 126.5096
L100.8105 126.7001
" />
<path d="M100.8105 126.7001
L100.8105 126.7953
" />
<path d="M100.8105 126.7953
L100.7153 126.9858
" />
<path d="M100.7153 126.9858
L100.6201 127.0811
" />
<path d="M100.6201 127.0811
L100.4296 127.1763
" />
<path d="M100.4296 127.1763
L100.0486 127.1763
" />
<path d="M100.0486 127.1763
L99.8582 127.2715
" />
<path d="M99.8582 127.2715
L99.7629 127.3668
" />
<path d="M99.7629 127.3668
L99.6677 127.5573
" />
<path d="M99.6677 127.5573
L99.6677 127.9382
" />
<path d="M99.6677 127.9382
L99.7629 128.1287
" />
<path d="M99.7629 128.1287
L99.8582 128.2239
" />
<path d="M99.8582 128.2239
L100.0486 128.3192
" />
<path d="M100.0486 128.3192
L100.4296 128.3192
" />
<path d="M100.4296 128.3192
L100.6201 128.2239
" />
<path d="M100.6201 128.2239
L100.7153 128.1287
" />
<path d="M100.7153 128.1287
L100.8105 127.9382
" />
<path d="M100.8105 127.9382
L100.8105 127.5573
" />
<path d="M100.8105 127.5573
L100.7153 127.3668
" />
<path d="M100.7153 127.3668
L100.6201 127.2715
" />
<path d="M100.6201 127.2715
L100.4296 127.1763
" />
<path d="M103.1915 128.3192
L103.1915 126.3192
" />
<path d="M104.0486 128.3192
L104.0486 127.2715
" />
<path d="M104.0486 127.2715
L103.9534 127.0811
" />
<path d="M103.9534 127.0811
L103.7629 126.9858
" />
<path d="M103.7629 126.9858
L103.4772 126.9858
" />
<path d="M103.4772 126.9858
L103.2867 127.0811
" />
<path d="M103.2867 127.0811
L103.1915 127.1763
" />
<path d="M105.2867 128.3192
L105.0962 128.2239
" />
<path d="M105.0962 128.2239
L105.0010 128.1287
" />
<path d="M105.0010 128.1287
L104.9058 127.9382
" />
<path d="M104.9058 127.9382
L104.9058 127.3668
" />
<path d="M104.9058 127.3668
L105.0010 127.1763
" />
<path d="M105.0010 127.1763
L105.0962 127.0811
" />
<path d="M105.0962 127.0811
L105.2867 126.9858
" />
<path d="M105.2867 126.9858
L105.5724 126.9858
" />
<path d="M105.5724 126.9858
L105.7629 127.0811
" />
<path d="M105.7629 127.0811
L105.8582 127.1763
" />
<path d="M105.8582 127.1763
L105.9534 127.3668
" />
<path d="M105.9534 127.3668
L105.9534 127.9382
" />
<path d="M105.9534 127.9382
L105.8582 128.1287
" />
<path d="M105.8582 128.1287
L105.7629 128.2239
" />
<path d="M105.7629 128.2239
L105.5724 128.3192
" />
<path d="M105.5724 128.3192
L105.2867 128.3192
" />
<path d="M107.0962 128.3192
L106.9058 128.2239
" />
<path d="M106.9058 128.2239
L106.8105 128.0334
" />
<path d="M106.8105 128.0334
L106.8105 126.3192
" />
<path d="M108.6201 128.2239
L108.4296 128.3192
" />
<path d="M108.4296 128.3192
L108.0486 128.3192
" />
<path d="M108.0486 128.3192
L107.8582 128.2239
" />
<path d="M107.8582 128.2239
L107.7629 128.0334
" />
<path d="M107.7629 128.0334
L107.7629 127.2715
" />
<path d="M107.7629 127.2715
L107.8582 127.0811
" />
<path d="M107.8582 127.0811
L108.0486 126.9858
" />
<path d="M108.0486 126.9858
L108.4296 126.9858
" />
<path d="M108.4296 126.9858
L108.6201 127.0811
" />
<path d="M108.6201 127.0811
L108.7153 127.2715
" />
<path d="M108.7153 127.2715
L108.7153 127.4620
" />
<path d="M108.7153 127.4620
L107.7629 127.6525
" />
<path d="M109.4772 128.2239
L109.6677 128.3192
" />
<path d="M109.6677 128.3192
L110.0486 128.3192
" />
<path d="M110.0486 128.3192
L110.2391 128.2239
" />
<path d="M110.2391 128.2239
L110.3343 128.0334
" />
<path d="M110.3343 128.0334
L110.3343 127.9382
" />
<path d="M110.3343 127.9382
L110.2391 127.7477
" />
<path d="M110.2391 127.7477
L110.0486 127.6525
" />
<path d="M110.0486 127.6525
L109.7629 127.6525
" />
<path d="M109.7629 127.6525
L109.5724 127.5573
" />
<path d="M109.5724 127.5573
L109.4772 127.3668
" />
<path d="M109.4772 127.3668
L109.4772 127.2715
" />
<path d="M109.4772 127.2715
L109.5724 127.0811
" />
<path d="M109.5724 127.0811
L109.7629 126.9858
" />
<path d="M109.7629 126.9858
L110.0486 126.9858
" />
<path d="M110.0486 126.9858
L110.2391 127.0811
" />
<path d="M111.0010 129.0811
L111.0962 128.9858
" />
<path d="M111.0962 128.9858
L111.2867 128.7001
" />
<path d="M111.2867 128.7001
L111.3820 128.5096
" />
<path d="M111.3820 128.5096
L111.4772 128.2239
" />
<path d="M111.4772 128.2239
L111.5724 127.7477
" />
<path d="M111.5724 127.7477
L111.5724 127.3668
" />
<path d="M111.5724 127.3668
L111.4772 126.8906
" />
<path d="M111.4772 126.8906
L111.3820 126.6049
" />
<path d="M111.3820 126.6049
L111.2867 126.4144
" />
<path d="M111.2867 126.4144
L111.0962 126.1287
" />
<path d="M111.0962 126.1287
L111.0010 126.0334
" />
</g></g>
<g style="fill:none; 
stroke:#000000; stroke-width:0.1311; stroke-opacity:1; 
stroke-linecap:round; stroke-linejoin:round;">
<circle cx="61.1490" cy="130.0443" r="0.1966" /> 
</g>
<g style="fill:none; 
stroke:#000000; stroke-width:0.2000; stroke-opacity:1; 
stroke-linecap:round; stroke-linejoin:round;">
<text x="63.3456" y="131.0443"
textLength="48.7714" font-size="2.6667" lengthAdjust="spacingAndGlyphs"
text-anchor="start" opacity="0" stroke-opacity="0">0.300mm / 0.0118" (53 holes)</text>
<g class="stroked-text"><desc>0.300mm / 0.0118" (53 holes)</desc>
<path d="M64.3343 128.9592
L64.5248 128.9592
" />
<path d="M64.5248 128.9592
L64.7153 129.0544
" />
<path d="M64.7153 129.0544
L64.8105 129.1496
" />
<path d="M64.8105 129.1496
L64.9058 129.3401
" />
<path d="M64.9058 129.3401
L65.0010 129.7211
" />
<path d="M65.0010 129.7211
L65.0010 130.1973
" />
<path d="M65.0010 130.1973
L64.9058 130.5782
" />
<path d="M64.9058 130.5782
L64.8105 130.7687
" />
<path d="M64.8105 130.7687
L64.7153 130.8639
" />
<path d="M64.7153 130.8639
L64.5248 130.9592
" />
<path d="M64.5248 130.9592
L64.3343 130.9592
" />
<path d="M64.3343 130.9592
L64.1439 130.8639
" />
<path d="M64.1439 130.8639
L64.0486 130.7687
" />
<path d="M64.0486 130.7687
L63.9534 130.5782
" />
<path d="M63.9534 130.5782
L63.8582 130.1973
" />
<path d="M63.8582 130.1973
L63.8582 129.7211
" />
<path d="M63.8582 129.7211
L63.9534 129.3401
" />
<path d="M63.9534 129.3401
L64.0486 129.1496
" />
<path d="M64.0486 129.1496
L64.1439 129.0544
" />
<path d="M64.1439 129.0544
L64.3343 128.9592
" />
<path d="M65.8582 130.7687
L65.9534 130.8639
" />
<path d="M65.9534 130.8639
L65.8582 130.9592
" />
<path d="M65.8582 130.9592
L65.7629 130.8639
" />
<path d="M65.7629 130.8639
L65.8582 130.7687
" />
<path d="M65.8582 130.7687
L65.8582 130.9592
" />
<path d="M66.6201 128.9592
L67.8582 128.9592
" />
<path d="M67.8582 128.9592
L67.1915 129.7211
" />
<path d="M67.1915 129.7211
L67.4772 129.7211
" />
<path d="M67.4772 129.7211
L67.6677 129.8163
" />
<path d="M67.6677 129.8163
L67.7629 129.9115
" />
<path d="M67.7629 129.9115
L67.8582 130.1020
" />
<path d="M67.8582 130.1020
L67.8582 130.5782
" />
<path d="M67.8582 130.5782
L67.7629 130.7687
" />
<path d="M67.7629 130.7687
L67.6677 130.8639
" />
<path d="M67.6677 130.8639
L67.4772 130.9592
" />
<path d="M67.4772 130.9592
L66.9058 130.9592
" />
<path d="M66.9058 130.9592
L66.7153 130.8639
" />
<path d="M66.7153 130.8639
L66.6201 130.7687
" />
<path d="M69.0962 128.9592
L69.2867 128.9592
" />
<path d="M69.2867 128.9592
L69.4772 129.0544
" />
<path d="M69.4772 129.0544
L69.5724 129.1496
" />
<path d="M69.5724 129.1496
L69.6677 129.3401
" />
<path d="M69.6677 129.3401
L69.7629 129.7211
" />
<path d="M69.7629 129.7211
L69.7629 130.1973
" />
<path d="M69.7629 130.1973
L69.6677 130.5782
" />
<path d="M69.6677 130.5782
L69.5724 130.7687
" />
<path d="M69.5724 130.7687
L69.4772 130.8639
" />
<path d="M69.4772 130.8639
L69.2867 130.9592
" />
<path d="M69.2867 130.9592
L69.0962 130.9592
" />
<path d="M69.0962 130.9592
L68.9058 130.8639
" />
<path d="M68.9058 130.8639
L68.8105 130.7687
" />
<path d="M68.8105 130.7687
L68.7153 130.5782
" />
<path d="M68.7153 130.5782
L68.6201 130.1973
" />
<path d="M68.6201 130.1973
L68.6201 129.7211
" />
<path d="M68.6201 129.7211
L68.7153 129.3401
" />
<path d="M68.7153 129.3401
L68.8105 129.1496
" />
<path d="M68.8105 129.1496
L68.9058 129.0544
" />
<path d="M68.9058 129.0544
L69.0962 128.9592
" />
<path d="M71.0010 128.9592
L71.1915 128.9592
" />
<path d="M71.1915 128.9592
L71.3820 129.0544
" />
<path d="M71.3820 129.0544
L71.4772 129.1496
" />
<path d="M71.4772 129.1496
L71.5724 129.3401
" />
<path d="M71.5724 129.3401
L71.6677 129.7211
" />
<path d="M71.6677 129.7211
L71.6677 130.1973
" />
<path d="M71.6677 130.1973
L71.5724 130.5782
" />
<path d="M71.5724 130.5782
L71.4772 130.7687
" />
<path d="M71.4772 130.7687
L71.3820 130.8639
" />
<path d="M71.3820 130.8639
L71.1915 130.9592
" />
<path d="M71.1915 130.9592
L71.0010 130.9592
" />
<path d="M71.0010 130.9592
L70.8105 130.8639
" />
<path d="M70.8105 130.8639
L70.7153 130.7687
" />
<path d="M70.7153 130.7687
L70.6201 130.5782
" />
<path d="M70.6201 130.5782
L70.5248 130.1973
" />
<path d="M70.5248 130.1973
L70.5248 129.7211
" />
<path d="M70.5248 129.7211
L70.6201 129.3401
" />
<path d="M70.6201 129.3401
L70.7153 129.1496
" />
<path d="M70.7153 129.1496
L70.8105 129.0544
" />
<path d="M70.8105 129.0544
L71.0010 128.9592
" />
<path d="M72.5248 130.9592
L72.5248 129.6258
" />
<path d="M72.5248 129.8163
L72.6201 129.7211
" />
<path d="M72.6201 129.7211
L72.8105 129.6258
" />
<path d="M72.8105 129.6258
L73.0962 129.6258
" />
<path d="M73.0962 129.6258
L73.2867 129.7211
" />
<path d="M73.2867 129.7211
L73.3820 129.9115
" />
<path d="M73.3820 129.9115
L73.3820 130.9592
" />
<path d="M73.3820 129.9115
L73.4772 129.7211
" />
<path d="M73.4772 129.7211
L73.6677 129.6258
" />
<path d="M73.6677 129.6258
L73.9534 129.6258
" />
<path d="M73.9534 129.6258
L74.1439 129.7211
" />
<path d="M74.1439 129.7211
L74.2391 129.9115
" />
<path d="M74.2391 129.9115
L74.2391 130.9592
" />
<path d="M75.1915 130.9592
L75.1915 129.6258
" />
<path d="M75.1915 129.8163
L75.2867 129.7211
" />
<path d="M75.2867 129.7211
L75.4772 129.6258
" />
<path d="M75.4772 129.6258
L75.7629 129.6258
" />
<path d="M75.7629 129.6258
L75.9534 129.7211
" />
<path d="M75.9534 129.7211
L76.0486 129.9115
" />
<path d="M76.0486 129.9115
L76.0486 130.9592
" />
<path d="M76.0486 129.9115
L76.1439 129.7211
" />
<path d="M76.1439 129.7211
L76.3343 129.6258
" />
<path d="M76.3343 129.6258
L76.6201 129.6258
" />
<path d="M76.6201 129.6258
L76.8105 129.7211
" />
<path d="M76.8105 129.7211
L76.9058 129.9115
" />
<path d="M76.9058 129.9115
L76.9058 130.9592
" />
<path d="M80.8105 128.8639
L79.0962 131.4353
" />
<path d="M83.3820 128.9592
L83.5724 128.9592
" />
<path d="M83.5724 128.9592
L83.7629 129.0544
" />
<path d="M83.7629 129.0544
L83.8582 129.1496
" />
<path d="M83.8582 129.1496
L83.9534 129.3401
" />
<path d="M83.9534 129.3401
L84.0486 129.7211
" />
<path d="M84.0486 129.7211
L84.0486 130.1973
" />
<path d="M84.0486 130.1973
L83.9534 130.5782
" />
<path d="M83.9534 130.5782
L83.8582 130.7687
" />
<path d="M83.8582 130.7687
L83.7629 130.8639
" />
<path d="M83.7629 130.8639
L83.5724 130.9592
" />
<path d="M83.5724 130.9592
L83.3820 130.9592
" />
<path d="M83.3820 130.9592
L83.1915 130.8639
" />
<path d="M83.1915 130.8639
L83.0962 130.7687
" />
<path d="M83.0962 130.7687
L83.0010 130.5782
" />
<path d="M83.0010 130.5782
L82.9058 130.1973
" />
<path d="M82.9058 130.1973
L82.9058 129.7211
" />
<path d="M82.9058 129.7211
L83.0010 129.3401
" />
<path d="M83.0010 129.3401
L83.0962 129.1496
" />
<path d="M83.0962 129.1496
L83.1915 129.0544
" />
<path d="M83.1915 129.0544
L83.3820 128.9592
" />
<path d="M84.9058 130.7687
L85.0010 130.8639
" />
<path d="M85.0010 130.8639
L84.9058 130.9592
" />
<path d="M84.9058 130.9592
L84.8105 130.8639
" />
<path d="M84.8105 130.8639
L84.9058 130.7687
" />
<path d="M84.9058 130.7687
L84.9058 130.9592
" />
<path d="M86.2391 128.9592
L86.4296 128.9592
" />
<path d="M86.4296 128.9592
L86.6201 129.0544
" />
<path d="M86.6201 129.0544
L86.7153 129.1496
" />
<path d="M86.7153 129.1496
L86.8105 129.3401
" />
<path d="M86.8105 129.3401
L86.9058 129.7211
" />
<path d="M86.9058 129.7211
L86.9058 130.1973
" />
<path d="M86.9058 130.1973
L86.8105 130.5782
" />
<path d="M86.8105 130.5782
L86.7153 130.7687
" />
<path d="M86.7153 130.7687
L86.6201 130.8639
" />
<path d="M86.6201 130.8639
L86.4296 130.9592
" />
<path d="M86.4296 130.9592
L86.2391 130.9592
" />
<path d="M86.2391 130.9592
L86.0486 130.8639
" />
<path d="M86.0486 130.8639
L85.9534 130.7687
" />
<path d="M85.9534 130.7687
L85.8582 130.5782
" />
<path d="M85.8582 130.5782
L85.7629 130.1973
" />
<path d="M85.7629 130.1973
L85.7629 129.7211
" />
<path d="M85.7629 129.7211
L85.8582 129.3401
" />
<path d="M85.8582 129.3401
L85.9534 129.1496
" />
<path d="M85.9534 129.1496
L86.0486 129.0544
" />
<path d="M86.0486 129.0544
L86.2391 128.9592
" />
<path d="M88.8105 130.9592
L87.6677 130.9592
" />
<path d="M88.2391 130.9592
L88.2391 128.9592
" />
<path d="M88.2391 128.9592
L88.0486 129.2449
" />
<path d="M88.0486 129.2449
L87.8582 129.4353
" />
<path d="M87.8582 129.4353
L87.6677 129.5306
" />
<path d="M90.7153 130.9592
L89.5724 130.9592
" />
<path d="M90.1439 130.9592
L90.1439 128.9592
" />
<path d="M90.1439 128.9592
L89.9534 129.2449
" />
<path d="M89.9534 129.2449
L89.7629 129.4353
" />
<path d="M89.7629 129.4353
L89.5724 129.5306
" />
<path d="M91.8582 129.8163
L91.6677 129.7211
" />
<path d="M91.6677 129.7211
L91.5724 129.6258
" />
<path d="M91.5724 129.6258
L91.4772 129.4353
" />
<path d="M91.4772 129.4353
L91.4772 129.3401
" />
<path d="M91.4772 129.3401
L91.5724 129.1496
" />
<path d="M91.5724 129.1496
L91.6677 129.0544
" />
<path d="M91.6677 129.0544
L91.8582 128.9592
" />
<path d="M91.8582 128.9592
L92.2391 128.9592
" />
<path d="M92.2391 128.9592
L92.4296 129.0544
" />
<path d="M92.4296 129.0544
L92.5248 129.1496
" />
<path d="M92.5248 129.1496
L92.6201 129.3401
" />
<path d="M92.6201 129.3401
L92.6201 129.4353
" />
<path d="M92.6201 129.4353
L92.5248 129.6258
" />
<path d="M92.5248 129.6258
L92.4296 129.7211
" />
<path d="M92.4296 129.7211
L92.2391 129.8163
" />
<path d="M92.2391 129.8163
L91.8582 129.8163
" />
<path d="M91.8582 129.8163
L91.6677 129.9115
" />
<path d="M91.6677 129.9115
L91.5724 130.0068
" />
<path d="M91.5724 130.0068
L91.4772 130.1973
" />
<path d="M91.4772 130.1973
L91.4772 130.5782
" />
<path d="M91.4772 130.5782
L91.5724 130.7687
" />
<path d="M91.5724 130.7687
L91.6677 130.8639
" />
<path d="M91.6677 130.8639
L91.8582 130.9592
" />
<path d="M91.8582 130.9592
L92.2391 130.9592
" />
<path d="M92.2391 130.9592
L92.4296 130.8639
" />
<path d="M92.4296 130.8639
L92.5248 130.7687
" />
<path d="M92.5248 130.7687
L92.6201 130.5782
" />
<path d="M92.6201 130.5782
L92.6201 130.1973
" />
<path d="M92.6201 130.1973
L92.5248 130.0068
" />
<path d="M92.5248 130.0068
L92.4296 129.9115
" />
<path d="M92.4296 129.9115
L92.2391 129.8163
" />
<path d="M93.3820 128.9592
L93.3820 129.3401
" />
<path d="M94.1439 128.9592
L94.1439 129.3401
" />
<path d="M97.0962 131.7211
L97.0010 131.6258
" />
<path d="M97.0010 131.6258
L96.8105 131.3401
" />
<path d="M96.8105 131.3401
L96.7153 131.1496
" />
<path d="M96.7153 131.1496
L96.6201 130.8639
" />
<path d="M96.6201 130.8639
L96.5248 130.3877
" />
<path d="M96.5248 130.3877
L96.5248 130.0068
" />
<path d="M96.5248 130.0068
L96.6201 129.5306
" />
<path d="M96.6201 129.5306
L96.7153 129.2449
" />
<path d="M96.7153 129.2449
L96.8105 129.0544
" />
<path d="M96.8105 129.0544
L97.0010 128.7687
" />
<path d="M97.0010 128.7687
L97.0962 128.6734
" />
<path d="M98.8105 128.9592
L97.8582 128.9592
" />
<path d="M97.8582 128.9592
L97.7629 129.9115
" />
<path d="M97.7629 129.9115
L97.8582 129.8163
" />
<path d="M97.8582 129.8163
L98.0486 129.7211
" />
<path d="M98.0486 129.7211
L98.5248 129.7211
" />
<path d="M98.5248 129.7211
L98.7153 129.8163
" />
<path d="M98.7153 129.8163
L98.8105 129.9115
" />
<path d="M98.8105 129.9115
L98.9058 130.1020
" />
<path d="M98.9058 130.1020
L98.9058 130.5782
" />
<path d="M98.9058 130.5782
L98.8105 130.7687
" />
<path d="M98.8105 130.7687
L98.7153 130.8639
" />
<path d="M98.7153 130.8639
L98.5248 130.9592
" />
<path d="M98.5248 130.9592
L98.0486 130.9592
" />
<path d="M98.0486 130.9592
L97.8582 130.8639
" />
<path d="M97.8582 130.8639
L97.7629 130.7687
" />
<path d="M99.5724 128.9592
L100.8105 128.9592
" />
<path d="M100.8105 128.9592
L100.1439 129.7211
" />
<path d="M100.1439 129.7211
L100.4296 129.7211
" />
<path d="M100.4296 129.7211
L100.6201 129.8163
" />
<path d="M100.6201 129.8163
L100.7153 129.9115
" />
<path d="M100.7153 129.9115
L100.8105 130.1020
" />
<path d="M100.8105 130.1020
L100.8105 130.5782
" />
<path d="M100.8105 130.5782
L100.7153 130.7687
" />
<path d="M100.7153 130.7687
L100.6201 130.8639
" />
<path d="M100.6201 130.8639
L100.4296 130.9592
" />
<path d="M100.4296 130.9592
L99.8582 130.9592
" />
<path d="M99.8582 130.9592
L99.6677 130.8639
" />
<path d="M99.6677 130.8639
L99.5724 130.7687
" />
<path d="M103.1915 130.9592
L103.1915 128.9592
" />
<path d="M104.0486 130.9592
L104.0486 129.9115
" />
<path d="M104.0486 129.9115
L103.9534 129.7211
" />
<path d="M103.9534 129.7211
L103.7629 129.6258
" />
<path d="M103.7629 129.6258
L103.4772 129.6258
" />
<path d="M103.4772 129.6258
L103.2867 129.7211
" />
<path d="M103.2867 129.7211
L103.1915 129.8163
" />
<path d="M105.2867 130.9592
L105.0962 130.8639
" />
<path d="M105.0962 130.8639
L105.0010 130.7687
" />
<path d="M105.0010 130.7687
L104.9058 130.5782
" />
<path d="M104.9058 130.5782
L104.9058 130.0068
" />
<path d="M104.9058 130.0068
L105.0010 129.8163
" />
<path d="M105.0010 129.8163
L105.0962 129.7211
" />
<path d="M105.0962 129.7211
L105.2867 129.6258
" />
<path d="M105.2867 129.6258
L105.5724 129.6258
" />
<path d="M105.5724 129.6258
L105.7629 129.7211
" />
<path d="M105.7629 129.7211
L105.8582 129.8163
" />
<path d="M105.8582 129.8163
L105.9534 130.0068
" />
<path d="M105.9534 130.0068
L105.9534 130.5782
" />
<path d="M105.9534 130.5782
L105.8582 130.7687
" />
<path d="M105.8582 130.7687
L105.7629 130.8639
" />
<path d="M105.7629 130.8639
L105.5724 130.9592
" />
<path d="M105.5724 130.9592
L105.2867 130.9592
" />
<path d="M107.0962 130.9592
L106.9058 130.8639
" />
<path d="M106.9058 130.8639
L106.8105 130.6734
" />
<path d="M106.8105 130.6734
L106.8105 128.9592
" />
<path d="M108.6201 130.8639
L108.4296 130.9592
" />
<path d="M108.4296 130.9592
L108.0486 130.9592
" />
<path d="M108.0486 130.9592
L107.8582 130.8639
" />
<path d="M107.8582 130.8639
L107.7629 130.6734
" />
<path d="M107.7629 130.6734
L107.7629 129.9115
" />
<path d="M107.7629 129.9115
L107.8582 129.7211
" />
<path d="M107.8582 129.7211
L108.0486 129.6258
" />
<path d="M108.0486 129.6258
L108.4296 129.6258
" />
<path d="M108.4296 129.6258
L108.6201 129.7211
" />
<path d="M108.6201 129.7211
L108.7153 129.9115
" />
<path d="M108.7153 129.9115
L108.7153 130.1020
" />
<path d="M108.7153 130.1020
L107.7629 130.2925
" />
<path d="M109.4772 130.8639
L109.6677 130.9592
" />
<path d="M109.6677 130.9592
L110.0486 130.9592
" />
<path d="M110.0486 130.9592
L110.2391 130.8639
" />
<path d="M110.2391 130.8639
L110.3343 130.6734
" />
<path d="M110.3343 130.6734
L110.3343 130.5782
" />
<path d="M110.3343 130.5782
L110.2391 130.3877
" />
<path d="M110.2391 130.3877
L110.0486 130.2925
" />
<path d="M110.0486 130.2925
L109.7629 130.2925
" />
<path d="M109.7629 130.2925
L109.5724 130.1973
" />
<path d="M109.5724 130.1973
L109.4772 130.0068
" />
<path d="M109.4772 130.0068
L109.4772 129.9115
" />
<path d="M109.4772 129.9115
L109.5724 129.7211
" />
<path d="M109.5724 129.7211
L109.7629 129.6258
" />
<path d="M109.7629 129.6258
L110.0486 129.6258
" />
<path d="M110.0486 129.6258
L110.2391 129.7211
" />
<path d="M111.0010 131.7211
L111.0962 131.6258
" />
<path d="M111.0962 131.6258
L111.2867 131.3401
" />
<path d="M111.2867 131.3401
L111.3820 131.1496
" />
<path d="M111.3820 131.1496
L111.4772 130.8639
" />
<path d="M111.4772 130.8639
L111.5724 130.3877
" />
<path d="M111.5724 130.3877
L111.5724 130.0068
" />
<path d="M111.5724 130.0068
L111.4772 129.5306
" />
<path d="M111.4772 129.5306
L111.3820 129.2449
" />
<path d="M111.3820 129.2449
L111.2867 129.0544
" />
<path d="M111.2867 129.0544
L111.0962 128.7687
" />
<path d="M111.0962 128.7687
L111.0010 128.6734
" />
</g></g>
<g style="fill:none; 
stroke:#000000; stroke-width:0.1311; stroke-opacity:1; 
stroke-linecap:round; stroke-linejoin:round;">
<path d="M60.9524 132.2911
L60.9524 133.0776
" />
<path d="M60.5591 132.6843
L61.3456 132.6843
" />
</g>
<g style="fill:none; 
stroke:#000000; stroke-width:0.2000; stroke-opacity:1; 
stroke-linecap:round; stroke-linejoin:round;">
<text x="63.3456" y="133.6843"
textLength="63.0571" font-size="2.6667" lengthAdjust="spacingAndGlyphs"
text-anchor="start" opacity="0" stroke-opacity="0">0.600mm / 0.0236" (0 holes + 4 slots)</text>
<g class="stroked-text"><desc>0.600mm / 0.0236" (0 holes + 4 slots)</desc>
<path d="M64.3343 131.5992
L64.5248 131.5992
" />
<path d="M64.5248 131.5992
L64.7153 131.6944
" />
<path d="M64.7153 131.6944
L64.8105 131.7896
" />
<path d="M64.8105 131.7896
L64.9058 131.9801
" />
<path d="M64.9058 131.9801
L65.0010 132.3611
" />
<path d="M65.0010 132.3611
L65.0010 132.8373
" />
<path d="M65.0010 132.8373
L64.9058 133.2182
" />
<path d="M64.9058 133.2182
L64.8105 133.4087
" />
<path d="M64.8105 133.4087
L64.7153 133.5039
" />
<path d="M64.7153 133.5039
L64.5248 133.5992
" />
<path d="M64.5248 133.5992
L64.3343 133.5992
" />
<path d="M64.3343 133.5992
L64.1439 133.5039
" />
<path d="M64.1439 133.5039
L64.0486 133.4087
" />
<path d="M64.0486 133.4087
L63.9534 133.2182
" />
<path d="M63.9534 133.2182
L63.8582 132.8373
" />
<path d="M63.8582 132.8373
L63.8582 132.3611
" />
<path d="M63.8582 132.3611
L63.9534 131.9801
" />
<path d="M63.9534 131.9801
L64.0486 131.7896
" />
<path d="M64.0486 131.7896
L64.1439 131.6944
" />
<path d="M64.1439 131.6944
L64.3343 131.5992
" />
<path d="M65.8582 133.4087
L65.9534 133.5039
" />
<path d="M65.9534 133.5039
L65.8582 133.5992
" />
<path d="M65.8582 133.5992
L65.7629 133.5039
" />
<path d="M65.7629 133.5039
L65.8582 133.4087
" />
<path d="M65.8582 133.4087
L65.8582 133.5992
" />
<path d="M67.6677 131.5992
L67.2867 131.5992
" />
<path d="M67.2867 131.5992
L67.0962 131.6944
" />
<path d="M67.0962 131.6944
L67.0010 131.7896
" />
<path d="M67.0010 131.7896
L66.8105 132.0753
" />
<path d="M66.8105 132.0753
L66.7153 132.4563
" />
<path d="M66.7153 132.4563
L66.7153 133.2182
" />
<path d="M66.7153 133.2182
L66.8105 133.4087
" />
<path d="M66.8105 133.4087
L66.9058 133.5039
" />
<path d="M66.9058 133.5039
L67.0962 133.5992
" />
<path d="M67.0962 133.5992
L67.4772 133.5992
" />
<path d="M67.4772 133.5992
L67.6677 133.5039
" />
<path d="M67.6677 133.5039
L67.7629 133.4087
" />
<path d="M67.7629 133.4087
L67.8582 133.2182
" />
<path d="M67.8582 133.2182
L67.8582 132.7420
" />
<path d="M67.8582 132.7420
L67.7629 132.5515
" />
<path d="M67.7629 132.5515
L67.6677 132.4563
" />
<path d="M67.6677 132.4563
L67.4772 132.3611
" />
<path d="M67.4772 132.3611
L67.0962 132.3611
" />
<path d="M67.0962 132.3611
L66.9058 132.4563
" />
<path d="M66.9058 132.4563
L66.8105 132.5515
" />
<path d="M66.8105 132.5515
L66.7153 132.7420
" />
<path d="M69.0962 131.5992
L69.2867 131.5992
" />
<path d="M69.2867 131.5992
L69.4772 131.6944
" />
<path d="M69.4772 131.6944
L69.5724 131.7896
" />
<path d="M69.5724 131.7896
L69.6677 131.9801
" />
<path d="M69.6677 131.9801
L69.7629 132.3611
" />
<path d="M69.7629 132.3611
L69.7629 132.8373
" />
<path d="M69.7629 132.8373
L69.6677 133.2182
" />
<path d="M69.6677 133.2182
L69.5724 133.4087
" />
<path d="M69.5724 133.4087
L69.4772 133.5039
" />
<path d="M69.4772 133.5039
L69.2867 133.5992
" />
<path d="M69.2867 133.5992
L69.0962 133.5992
" />
<path d="M69.0962 133.5992
L68.9058 133.5039
" />
<path d="M68.9058 133.5039
L68.8105 133.4087
" />
<path d="M68.8105 133.4087
L68.7153 133.2182
" />
<path d="M68.7153 133.2182
L68.6201 132.8373
" />
<path d="M68.6201 132.8373
L68.6201 132.3611
" />
<path d="M68.6201 132.3611
L68.7153 131.9801
" />
<path d="M68.7153 131.9801
L68.8105 131.7896
" />
<path d="M68.8105 131.7896
L68.9058 131.6944
" />
<path d="M68.9058 131.6944
L69.0962 131.5992
" />
<path d="M71.0010 131.5992
L71.1915 131.5992
" />
<path d="M71.1915 131.5992
L71.3820 131.6944
" />
<path d="M71.3820 131.6944
L71.4772 131.7896
" />
<path d="M71.4772 131.7896
L71.5724 131.9801
" />
<path d="M71.5724 131.9801
L71.6677 132.3611
" />
<path d="M71.6677 132.3611
L71.6677 132.8373
" />
<path d="M71.6677 132.8373
L71.5724 133.2182
" />
<path d="M71.5724 133.2182
L71.4772 133.4087
" />
<path d="M71.4772 133.4087
L71.3820 133.5039
" />
<path d="M71.3820 133.5039
L71.1915 133.5992
" />
<path d="M71.1915 133.5992
L71.0010 133.5992
" />
<path d="M71.0010 133.5992
L70.8105 133.5039
" />
<path d="M70.8105 133.5039
L70.7153 133.4087
" />
<path d="M70.7153 133.4087
L70.6201 133.2182
" />
<path d="M70.6201 133.2182
L70.5248 132.8373
" />
<path d="M70.5248 132.8373
L70.5248 132.3611
" />
<path d="M70.5248 132.3611
L70.6201 131.9801
" />
<path d="M70.6201 131.9801
L70.7153 131.7896
" />
<path d="M70.7153 131.7896
L70.8105 131.6944
" />
<path d="M70.8105 131.6944
L71.0010 131.5992
" />
<path d="M72.5248 133.5992
L72.5248 132.2658
" />
<path d="M72.5248 132.4563
L72.6201 132.3611
" />
<path d="M72.6201 132.3611
L72.8105 132.2658
" />
<path d="M72.8105 132.2658
L73.0962 132.2658
" />
<path d="M73.0962 132.2658
L73.2867 132.3611
" />
<path d="M73.2867 132.3611
L73.3820 132.5515
" />
<path d="M73.3820 132.5515
L73.3820 133.5992
" />
<path d="M73.3820 132.5515
L73.4772 132.3611
" />
<path d="M73.4772 132.3611
L73.6677 132.2658
" />
<path d="M73.6677 132.2658
L73.9534 132.2658
" />
<path d="M73.9534 132.2658
L74.1439 132.3611
" />
<path d="M74.1439 132.3611
L74.2391 132.5515
" />
<path d="M74.2391 132.5515
L74.2391 133.5992
" />
<path d="M75.1915 133.5992
L75.1915 132.2658
" />
<path d="M75.1915 132.4563
L75.2867 132.3611
" />
<path d="M75.2867 132.3611
L75.4772 132.2658
" />
<path d="M75.4772 132.2658
L75.7629 132.2658
" />
<path d="M75.7629 132.2658
L75.9534 132.3611
" />
<path d="M75.9534 132.3611
L76.0486 132.5515
" />
<path d="M76.0486 132.5515
L76.0486 133.5992
" />
<path d="M76.0486 132.5515
L76.1439 132.3611
" />
<path d="M76.1439 132.3611
L76.3343 132.2658
" />
<path d="M76.3343 132.2658
L76.6201 132.2658
" />
<path d="M76.6201 132.2658
L76.8105 132.3611
" />
<path d="M76.8105 132.3611
L76.9058 132.5515
" />
<path d="M76.9058 132.5515
L76.9058 133.5992
" />
<path d="M80.8105 131.5039
L79.0962 134.0753
" />
<path d="M83.3820 131.5992
L83.5724 131.5992
" />
<path d="M83.5724 131.5992
L83.7629 131.6944
" />
<path d="M83.7629 131.6944
L83.8582 131.7896
" />
<path d="M83.8582 131.7896
L83.9534 131.9801
" />
<path d="M83.9534 131.9801
L84.0486 132.3611
" />
<path d="M84.0486 132.3611
L84.0486 132.8373
" />
<path d="M84.0486 132.8373
L83.9534 133.2182
" />
<path d="M83.9534 133.2182
L83.8582 133.4087
" />
<path d="M83.8582 133.4087
L83.7629 133.5039
" />
<path d="M83.7629 133.5039
L83.5724 133.5992
" />
<path d="M83.5724 133.5992
L83.3820 133.5992
" />
<path d="M83.3820 133.5992
L83.1915 133.5039
" />
<path d="M83.1915 133.5039
L83.0962 133.4087
" />
<path d="M83.0962 133.4087
L83.0010 133.2182
" />
<path d="M83.0010 133.2182
L82.9058 132.8373
" />
<path d="M82.9058 132.8373
L82.9058 132.3611
" />
<path d="M82.9058 132.3611
L83.0010 131.9801
" />
<path d="M83.0010 131.9801
L83.0962 131.7896
" />
<path d="M83.0962 131.7896
L83.1915 131.6944
" />
<path d="M83.1915 131.6944
L83.3820 131.5992
" />
<path d="M84.9058 133.4087
L85.0010 133.5039
" />
<path d="M85.0010 133.5039
L84.9058 133.5992
" />
<path d="M84.9058 133.5992
L84.8105 133.5039
" />
<path d="M84.8105 133.5039
L84.9058 133.4087
" />
<path d="M84.9058 133.4087
L84.9058 133.5992
" />
<path d="M86.2391 131.5992
L86.4296 131.5992
" />
<path d="M86.4296 131.5992
L86.6201 131.6944
" />
<path d="M86.6201 131.6944
L86.7153 131.7896
" />
<path d="M86.7153 131.7896
L86.8105 131.9801
" />
<path d="M86.8105 131.9801
L86.9058 132.3611
" />
<path d="M86.9058 132.3611
L86.9058 132.8373
" />
<path d="M86.9058 132.8373
L86.8105 133.2182
" />
<path d="M86.8105 133.2182
L86.7153 133.4087
" />
<path d="M86.7153 133.4087
L86.6201 133.5039
" />
<path d="M86.6201 133.5039
L86.4296 133.5992
" />
<path d="M86.4296 133.5992
L86.2391 133.5992
" />
<path d="M86.2391 133.5992
L86.0486 133.5039
" />
<path d="M86.0486 133.5039
L85.9534 133.4087
" />
<path d="M85.9534 133.4087
L85.8582 133.2182
" />
<path d="M85.8582 133.2182
L85.7629 132.8373
" />
<path d="M85.7629 132.8373
L85.7629 132.3611
" />
<path d="M85.7629 132.3611
L85.8582 131.9801
" />
<path d="M85.8582 131.9801
L85.9534 131.7896
" />
<path d="M85.9534 131.7896
L86.0486 131.6944
" />
<path d="M86.0486 131.6944
L86.2391 131.5992
" />
<path d="M87.6677 131.7896
L87.7629 131.6944
" />
<path d="M87.7629 131.6944
L87.9534 131.5992
" />
<path d="M87.9534 131.5992
L88.4296 131.5992
" />
<path d="M88.4296 131.5992
L88.6201 131.6944
" />
<path d="M88.6201 131.6944
L88.7153 131.7896
" />
<path d="M88.7153 131.7896
L88.8105 131.9801
" />
<path d="M88.8105 131.9801
L88.8105 132.1706
" />
<path d="M88.8105 132.1706
L88.7153 132.4563
" />
<path d="M88.7153 132.4563
L87.5724 133.5992
" />
<path d="M87.5724 133.5992
L88.8105 133.5992
" />
<path d="M89.4772 131.5992
L90.7153 131.5992
" />
<path d="M90.7153 131.5992
L90.0486 132.3611
" />
<path d="M90.0486 132.3611
L90.3343 132.3611
" />
<path d="M90.3343 132.3611
L90.5248 132.4563
" />
<path d="M90.5248 132.4563
L90.6201 132.5515
" />
<path d="M90.6201 132.5515
L90.7153 132.7420
" />
<path d="M90.7153 132.7420
L90.7153 133.2182
" />
<path d="M90.7153 133.2182
L90.6201 133.4087
" />
<path d="M90.6201 133.4087
L90.5248 133.5039
" />
<path d="M90.5248 133.5039
L90.3343 133.5992
" />
<path d="M90.3343 133.5992
L89.7629 133.5992
" />
<path d="M89.7629 133.5992
L89.5724 133.5039
" />
<path d="M89.5724 133.5039
L89.4772 133.4087
" />
<path d="M92.4296 131.5992
L92.0486 131.5992
" />
<path d="M92.0486 131.5992
L91.8582 131.6944
" />
<path d="M91.8582 131.6944
L91.7629 131.7896
" />
<path d="M91.7629 131.7896
L91.5724 132.0753
" />
<path d="M91.5724 132.0753
L91.4772 132.4563
" />
<path d="M91.4772 132.4563
L91.4772 133.2182
" />
<path d="M91.4772 133.2182
L91.5724 133.4087
" />
<path d="M91.5724 133.4087
L91.6677 133.5039
" />
<path d="M91.6677 133.5039
L91.8582 133.5992
" />
<path d="M91.8582 133.5992
L92.2391 133.5992
" />
<path d="M92.2391 133.5992
L92.4296 133.5039
" />
<path d="M92.4296 133.5039
L92.5248 133.4087
" />
<path d="M92.5248 133.4087
L92.6201 133.2182
" />
<path d="M92.6201 133.2182
L92.6201 132.7420
" />
<path d="M92.6201 132.7420
L92.5248 132.5515
" />
<path d="M92.5248 132.5515
L92.4296 132.4563
" />
<path d="M92.4296 132.4563
L92.2391 132.3611
" />
<path d="M92.2391 132.3611
L91.8582 132.3611
" />
<path d="M91.8582 132.3611
L91.6677 132.4563
" />
<path d="M91.6677 132.4563
L91.5724 132.5515
" />
<path d="M91.5724 132.5515
L91.4772 132.7420
" />
<path d="M93.3820 131.5992
L93.3820 131.9801
" />
<path d="M94.1439 131.5992
L94.1439 131.9801
" />
<path d="M97.0962 134.3611
L97.0010 134.2658
" />
<path d="M97.0010 134.2658
L96.8105 133.9801
" />
<path d="M96.8105 133.9801
L96.7153 133.7896
" />
<path d="M96.7153 133.7896
L96.6201 133.5039
" />
<path d="M96.6201 133.5039
L96.5248 133.0277
" />
<path d="M96.5248 133.0277
L96.5248 132.6468
" />
<path d="M96.5248 132.6468
L96.6201 132.1706
" />
<path d="M96.6201 132.1706
L96.7153 131.8849
" />
<path d="M96.7153 131.8849
L96.8105 131.6944
" />
<path d="M96.8105 131.6944
L97.0010 131.4087
" />
<path d="M97.0010 131.4087
L97.0962 131.3134
" />
<path d="M98.2391 131.5992
L98.4296 131.5992
" />
<path d="M98.4296 131.5992
L98.6201 131.6944
" />
<path d="M98.6201 131.6944
L98.7153 131.7896
" />
<path d="M98.7153 131.7896
L98.8105 131.9801
" />
<path d="M98.8105 131.9801
L98.9058 132.3611
" />
<path d="M98.9058 132.3611
L98.9058 132.8373
" />
<path d="M98.9058 132.8373
L98.8105 133.2182
" />
<path d="M98.8105 133.2182
L98.7153 133.4087
" />
<path d="M98.7153 133.4087
L98.6201 133.5039
" />
<path d="M98.6201 133.5039
L98.4296 133.5992
" />
<path d="M98.4296 133.5992
L98.2391 133.5992
" />
<path d="M98.2391 133.5992
L98.0486 133.5039
" />
<path d="M98.0486 133.5039
L97.9534 133.4087
" />
<path d="M97.9534 133.4087
L97.8582 133.2182
" />
<path d="M97.8582 133.2182
L97.7629 132.8373
" />
<path d="M97.7629 132.8373
L97.7629 132.3611
" />
<path d="M97.7629 132.3611
L97.8582 131.9801
" />
<path d="M97.8582 131.9801
L97.9534 131.7896
" />
<path d="M97.9534 131.7896
L98.0486 131.6944
" />
<path d="M98.0486 131.6944
L98.2391 131.5992
" />
<path d="M101.2867 133.5992
L101.2867 131.5992
" />
<path d="M102.1439 133.5992
L102.1439 132.5515
" />
<path d="M102.1439 132.5515
L102.0486 132.3611
" />
<path d="M102.0486 132.3611
L101.8582 132.2658
" />
<path d="M101.8582 132.2658
L101.5724 132.2658
" />
<path d="M101.5724 132.2658
L101.3820 132.3611
" />
<path d="M101.3820 132.3611
L101.2867 132.4563
" />
<path d="M103.3820 133.5992
L103.1915 133.5039
" />
<path d="M103.1915 133.5039
L103.0962 133.4087
" />
<path d="M103.0962 133.4087
L103.0010 133.2182
" />
<path d="M103.0010 133.2182
L103.0010 132.6468
" />
<path d="M103.0010 132.6468
L103.0962 132.4563
" />
<path d="M103.0962 132.4563
L103.1915 132.3611
" />
<path d="M103.1915 132.3611
L103.3820 132.2658
" />
<path d="M103.3820 132.2658
L103.6677 132.2658
" />
<path d="M103.6677 132.2658
L103.8582 132.3611
" />
<path d="M103.8582 132.3611
L103.9534 132.4563
" />
<path d="M103.9534 132.4563
L104.0486 132.6468
" />
<path d="M104.0486 132.6468
L104.0486 133.2182
" />
<path d="M104.0486 133.2182
L103.9534 133.4087
" />
<path d="M103.9534 133.4087
L103.8582 133.5039
" />
<path d="M103.8582 133.5039
L103.6677 133.5992
" />
<path d="M103.6677 133.5992
L103.3820 133.5992
" />
<path d="M105.1915 133.5992
L105.0010 133.5039
" />
<path d="M105.0010 133.5039
L104.9058 133.3134
" />
<path d="M104.9058 133.3134
L104.9058 131.5992
" />
<path d="M106.7153 133.5039
L106.5248 133.5992
" />
<path d="M106.5248 133.5992
L106.1439 133.5992
" />
<path d="M106.1439 133.5992
L105.9534 133.5039
" />
<path d="M105.9534 133.5039
L105.8582 133.3134
" />
<path d="M105.8582 133.3134
L105.8582 132.5515
" />
<path d="M105.8582 132.5515
L105.9534 132.3611
" />
<path d="M105.9534 132.3611
L106.1439 132.2658
" />
<path d="M106.1439 132.2658
L106.5248 132.2658
" />
<path d="M106.5248 132.2658
L106.7153 132.3611
" />
<path d="M106.7153 132.3611
L106.8105 132.5515
" />
<path d="M106.8105 132.5515
L106.8105 132.7420
" />
<path d="M106.8105 132.7420
L105.8582 132.9325
" />
<path d="M107.5724 133.5039
L107.7629 133.5992
" />
<path d="M107.7629 133.5992
L108.1439 133.5992
" />
<path d="M108.1439 133.5992
L108.3343 133.5039
" />
<path d="M108.3343 133.5039
L108.4296 133.3134
" />
<path d="M108.4296 133.3134
L108.4296 133.2182
" />
<path d="M108.4296 133.2182
L108.3343 133.0277
" />
<path d="M108.3343 133.0277
L108.1439 132.9325
" />
<path d="M108.1439 132.9325
L107.8582 132.9325
" />
<path d="M107.8582 132.9325
L107.6677 132.8373
" />
<path d="M107.6677 132.8373
L107.5724 132.6468
" />
<path d="M107.5724 132.6468
L107.5724 132.5515
" />
<path d="M107.5724 132.5515
L107.6677 132.3611
" />
<path d="M107.6677 132.3611
L107.8582 132.2658
" />
<path d="M107.8582 132.2658
L108.1439 132.2658
" />
<path d="M108.1439 132.2658
L108.3343 132.3611
" />
<path d="M110.8105 132.8373
L112.3343 132.8373
" />
<path d="M111.5724 133.5992
L111.5724 132.0753
" />
<path d="M115.6677 132.2658
L115.6677 133.5992
" />
<path d="M115.1915 131.5039
L114.7153 132.9325
" />
<path d="M114.7153 132.9325
L115.9534 132.9325
" />
<path d="M118.1439 133.5039
L118.3343 133.5992
" />
<path d="M118.3343 133.5992
L118.7153 133.5992
" />
<path d="M118.7153 133.5992
L118.9058 133.5039
" />
<path d="M118.9058 133.5039
L119.0010 133.3134
" />
<path d="M119.0010 133.3134
L119.0010 133.2182
" />
<path d="M119.0010 133.2182
L118.9058 133.0277
" />
<path d="M118.9058 133.0277
L118.7153 132.9325
" />
<path d="M118.7153 132.9325
L118.4296 132.9325
" />
<path d="M118.4296 132.9325
L118.2391 132.8373
" />
<path d="M118.2391 132.8373
L118.1439 132.6468
" />
<path d="M118.1439 132.6468
L118.1439 132.5515
" />
<path d="M118.1439 132.5515
L118.2391 132.3611
" />
<path d="M118.2391 132.3611
L118.4296 132.2658
" />
<path d="M118.4296 132.2658
L118.7153 132.2658
" />
<path d="M118.7153 132.2658
L118.9058 132.3611
" />
<path d="M120.1439 133.5992
L119.9534 133.5039
" />
<path d="M119.9534 133.5039
L119.8582 133.3134
" />
<path d="M119.8582 133.3134
L119.8582 131.5992
" />
<path d="M121.1915 133.5992
L121.0010 133.5039
" />
<path d="M121.0010 133.5039
L120.9058 133.4087
" />
<path d="M120.9058 133.4087
L120.8105 133.2182
" />
<path d="M120.8105 133.2182
L120.8105 132.6468
" />
<path d="M120.8105 132.6468
L120.9058 132.4563
" />
<path d="M120.9058 132.4563
L121.0010 132.3611
" />
<path d="M121.0010 132.3611
L121.1915 132.2658
" />
<path d="M121.1915 132.2658
L121.4772 132.2658
" />
<path d="M121.4772 132.2658
L121.6677 132.3611
" />
<path d="M121.6677 132.3611
L121.7629 132.4563
" />
<path d="M121.7629 132.4563
L121.8582 132.6468
" />
<path d="M121.8582 132.6468
L121.8582 133.2182
" />
<path d="M121.8582 133.2182
L121.7629 133.4087
" />
<path d="M121.7629 133.4087
L121.6677 133.5039
" />
<path d="M121.6677 133.5039
L121.4772 133.5992
" />
<path d="M121.4772 133.5992
L121.1915 133.5992
" />
<path d="M122.4296 132.2658
L123.1915 132.2658
" />
<path d="M122.7153 131.5992
L122.7153 133.3134
" />
<path d="M122.7153 133.3134
L122.8105 133.5039
" />
<path d="M122.8105 133.5039
L123.0010 133.5992
" />
<path d="M123.0010 133.5992
L123.1915 133.5992
" />
<path d="M123.7629 133.5039
L123.9534 133.5992
" />
<path d="M123.9534 133.5992
L124.3343 133.5992
" />
<path d="M124.3343 133.5992
L124.5248 133.5039
" />
<path d="M124.5248 133.5039
L124.6201 133.3134
" />
<path d="M124.6201 133.3134
L124.6201 133.2182
" />
<path d="M124.6201 133.2182
L124.5248 133.0277
" />
<path d="M124.5248 133.0277
L124.3343 132.9325
" />
<path d="M124.3343 132.9325
L124.0486 132.9325
" />
<path d="M124.0486 132.9325
L123.8582 132.8373
" />
<path d="M123.8582 132.8373
L123.7629 132.6468
" />
<path d="M123.7629 132.6468
L123.7629 132.5515
" />
<path d="M123.7629 132.5515
L123.8582 132.3611
" />
<path d="M123.8582 132.3611
L124.0486 132.2658
" />
<path d="M124.0486 132.2658
L124.3343 132.2658
" />
<path d="M124.3343 132.2658
L124.5248 132.3611
" />
<path d="M125.2867 134.3611
L125.3820 134.2658
" />
<path d="M125.3820 134.2658
L125.5724 133.9801
" />
<path d="M125.5724 133.9801
L125.6677 133.7896
" />
<path d="M125.6677 133.7896
L125.7629 133.5039
" />
<path d="M125.7629 133.5039
L125.8582 133.0277
" />
<path d="M125.8582 133.0277
L125.8582 132.6468
" />
<path d="M125.8582 132.6468
L125.7629 132.1706
" />
<path d="M125.7629 132.1706
L125.6677 131.8849
" />
<path d="M125.6677 131.8849
L125.5724 131.6944
" />
<path d="M125.5724 131.6944
L125.3820 131.4087
" />
<path d="M125.3820 131.4087
L125.2867 131.3134
" />
</g><path style="fill:none; 
stroke:#000000; stroke-width:0.1311; stroke-opacity:1; 
stroke-linecap:round; stroke-linejoin:round;fill:none"
d="M 61.1537,135.7878
61.1537,134.8609
60.2268,134.8609
60.2268,135.7878
Z" /> 
</g>
<g style="fill:none; 
stroke:#000000; stroke-width:0.2000; stroke-opacity:1; 
stroke-linecap:round; stroke-linejoin:round;">
<text x="63.3456" y="136.3243"
textLength="46.8667" font-size="2.6667" lengthAdjust="spacingAndGlyphs"
text-anchor="start" opacity="0" stroke-opacity="0">1.000mm / 0.0394" (7 holes)</text>
<g class="stroked-text"><desc>1.000mm / 0.0394" (7 holes)</desc>
<path d="M65.0010 136.2392
L63.8582 136.2392
" />
<path d="M64.4296 136.2392
L64.4296 134.2392
" />
<path d="M64.4296 134.2392
L64.2391 134.5249
" />
<path d="M64.2391 134.5249
L64.0486 134.7153
" />
<path d="M64.0486 134.7153
L63.8582 134.8106
" />
<path d="M65.8582 136.0487
L65.9534 136.1439
" />
<path d="M65.9534 136.1439
L65.8582 136.2392
" />
<path d="M65.8582 136.2392
L65.7629 136.1439
" />
<path d="M65.7629 136.1439
L65.8582 136.0487
" />
<path d="M65.8582 136.0487
L65.8582 136.2392
" />
<path d="M67.1915 134.2392
L67.3820 134.2392
" />
<path d="M67.3820 134.2392
L67.5724 134.3344
" />
<path d="M67.5724 134.3344
L67.6677 134.4296
" />
<path d="M67.6677 134.4296
L67.7629 134.6201
" />
<path d="M67.7629 134.6201
L67.8582 135.0011
" />
<path d="M67.8582 135.0011
L67.8582 135.4773
" />
<path d="M67.8582 135.4773
L67.7629 135.8582
" />
<path d="M67.7629 135.8582
L67.6677 136.0487
" />
<path d="M67.6677 136.0487
L67.5724 136.1439
" />
<path d="M67.5724 136.1439
L67.3820 136.2392
" />
<path d="M67.3820 136.2392
L67.1915 136.2392
" />
<path d="M67.1915 136.2392
L67.0010 136.1439
" />
<path d="M67.0010 136.1439
L66.9058 136.0487
" />
<path d="M66.9058 136.0487
L66.8105 135.8582
" />
<path d="M66.8105 135.8582
L66.7153 135.4773
" />
<path d="M66.7153 135.4773
L66.7153 135.0011
" />
<path d="M66.7153 135.0011
L66.8105 134.6201
" />
<path d="M66.8105 134.6201
L66.9058 134.4296
" />
<path d="M66.9058 134.4296
L67.0010 134.3344
" />
<path d="M67.0010 134.3344
L67.1915 134.2392
" />
<path d="M69.0962 134.2392
L69.2867 134.2392
" />
<path d="M69.2867 134.2392
L69.4772 134.3344
" />
<path d="M69.4772 134.3344
L69.5724 134.4296
" />
<path d="M69.5724 134.4296
L69.6677 134.6201
" />
<path d="M69.6677 134.6201
L69.7629 135.0011
" />
<path d="M69.7629 135.0011
L69.7629 135.4773
" />
<path d="M69.7629 135.4773
L69.6677 135.8582
" />
<path d="M69.6677 135.8582
L69.5724 136.0487
" />
<path d="M69.5724 136.0487
L69.4772 136.1439
" />
<path d="M69.4772 136.1439
L69.2867 136.2392
" />
<path d="M69.2867 136.2392
L69.0962 136.2392
" />
<path d="M69.0962 136.2392
L68.9058 136.1439
" />
<path d="M68.9058 136.1439
L68.8105 136.0487
" />
<path d="M68.8105 136.0487
L68.7153 135.8582
" />
<path d="M68.7153 135.8582
L68.6201 135.4773
" />
<path d="M68.6201 135.4773
L68.6201 135.0011
" />
<path d="M68.6201 135.0011
L68.7153 134.6201
" />
<path d="M68.7153 134.6201
L68.8105 134.4296
" />
<path d="M68.8105 134.4296
L68.9058 134.3344
" />
<path d="M68.9058 134.3344
L69.0962 134.2392
" />
<path d="M71.0010 134.2392
L71.1915 134.2392
" />
<path d="M71.1915 134.2392
L71.3820 134.3344
" />
<path d="M71.3820 134.3344
L71.4772 134.4296
" />
<path d="M71.4772 134.4296
L71.5724 134.6201
" />
<path d="M71.5724 134.6201
L71.6677 135.0011
" />
<path d="M71.6677 135.0011
L71.6677 135.4773
" />
<path d="M71.6677 135.4773
L71.5724 135.8582
" />
<path d="M71.5724 135.8582
L71.4772 136.0487
" />
<path d="M71.4772 136.0487
L71.3820 136.1439
" />
<path d="M71.3820 136.1439
L71.1915 136.2392
" />
<path d="M71.1915 136.2392
L71.0010 136.2392
" />
<path d="M71.0010 136.2392
L70.8105 136.1439
" />
<path d="M70.8105 136.1439
L70.7153 136.0487
" />
<path d="M70.7153 136.0487
L70.6201 135.8582
" />
<path d="M70.6201 135.8582
L70.5248 135.4773
" />
<path d="M70.5248 135.4773
L70.5248 135.0011
" />
<path d="M70.5248 135.0011
L70.6201 134.6201
" />
<path d="M70.6201 134.6201
L70.7153 134.4296
" />
<path d="M70.7153 134.4296
L70.8105 134.3344
" />
<path d="M70.8105 134.3344
L71.0010 134.2392
" />
<path d="M72.5248 136.2392
L72.5248 134.9058
" />
<path d="M72.5248 135.0963
L72.6201 135.0011
" />
<path d="M72.6201 135.0011
L72.8105 134.9058
" />
<path d="M72.8105 134.9058
L73.0962 134.9058
" />
<path d="M73.0962 134.9058
L73.2867 135.0011
" />
<path d="M73.2867 135.0011
L73.3820 135.1915
" />
<path d="M73.3820 135.1915
L73.3820 136.2392
" />
<path d="M73.3820 135.1915
L73.4772 135.0011
" />
<path d="M73.4772 135.0011
L73.6677 134.9058
" />
<path d="M73.6677 134.9058
L73.9534 134.9058
" />
<path d="M73.9534 134.9058
L74.1439 135.0011
" />
<path d="M74.1439 135.0011
L74.2391 135.1915
" />
<path d="M74.2391 135.1915
L74.2391 136.2392
" />
<path d="M75.1915 136.2392
L75.1915 134.9058
" />
<path d="M75.1915 135.0963
L75.2867 135.0011
" />
<path d="M75.2867 135.0011
L75.4772 134.9058
" />
<path d="M75.4772 134.9058
L75.7629 134.9058
" />
<path d="M75.7629 134.9058
L75.9534 135.0011
" />
<path d="M75.9534 135.0011
L76.0486 135.1915
" />
<path d="M76.0486 135.1915
L76.0486 136.2392
" />
<path d="M76.0486 135.1915
L76.1439 135.0011
" />
<path d="M76.1439 135.0011
L76.3343 134.9058
" />
<path d="M76.3343 134.9058
L76.6201 134.9058
" />
<path d="M76.6201 134.9058
L76.8105 135.0011
" />
<path d="M76.8105 135.0011
L76.9058 135.1915
" />
<path d="M76.9058 135.1915
L76.9058 136.2392
" />
<path d="M80.8105 134.1439
L79.0962 136.7153
" />
<path d="M83.3820 134.2392
L83.5724 134.2392
" />
<path d="M83.5724 134.2392
L83.7629 134.3344
" />
<path d="M83.7629 134.3344
L83.8582 134.4296
" />
<path d="M83.8582 134.4296
L83.9534 134.6201
" />
<path d="M83.9534 134.6201
L84.0486 135.0011
" />
<path d="M84.0486 135.0011
L84.0486 135.4773
" />
<path d="M84.0486 135.4773
L83.9534 135.8582
" />
<path d="M83.9534 135.8582
L83.8582 136.0487
" />
<path d="M83.8582 136.0487
L83.7629 136.1439
" />
<path d="M83.7629 136.1439
L83.5724 136.2392
" />
<path d="M83.5724 136.2392
L83.3820 136.2392
" />
<path d="M83.3820 136.2392
L83.1915 136.1439
" />
<path d="M83.1915 136.1439
L83.0962 136.0487
" />
<path d="M83.0962 136.0487
L83.0010 135.8582
" />
<path d="M83.0010 135.8582
L82.9058 135.4773
" />
<path d="M82.9058 135.4773
L82.9058 135.0011
" />
<path d="M82.9058 135.0011
L83.0010 134.6201
" />
<path d="M83.0010 134.6201
L83.0962 134.4296
" />
<path d="M83.0962 134.4296
L83.1915 134.3344
" />
<path d="M83.1915 134.3344
L83.3820 134.2392
" />
<path d="M84.9058 136.0487
L85.0010 136.1439
" />
<path d="M85.0010 136.1439
L84.9058 136.2392
" />
<path d="M84.9058 136.2392
L84.8105 136.1439
" />
<path d="M84.8105 136.1439
L84.9058 136.0487
" />
<path d="M84.9058 136.0487
L84.9058 136.2392
" />
<path d="M86.2391 134.2392
L86.4296 134.2392
" />
<path d="M86.4296 134.2392
L86.6201 134.3344
" />
<path d="M86.6201 134.3344
L86.7153 134.4296
" />
<path d="M86.7153 134.4296
L86.8105 134.6201
" />
<path d="M86.8105 134.6201
L86.9058 135.0011
" />
<path d="M86.9058 135.0011
L86.9058 135.4773
" />
<path d="M86.9058 135.4773
L86.8105 135.8582
" />
<path d="M86.8105 135.8582
L86.7153 136.0487
" />
<path d="M86.7153 136.0487
L86.6201 136.1439
" />
<path d="M86.6201 136.1439
L86.4296 136.2392
" />
<path d="M86.4296 136.2392
L86.2391 136.2392
" />
<path d="M86.2391 136.2392
L86.0486 136.1439
" />
<path d="M86.0486 136.1439
L85.9534 136.0487
" />
<path d="M85.9534 136.0487
L85.8582 135.8582
" />
<path d="M85.8582 135.8582
L85.7629 135.4773
" />
<path d="M85.7629 135.4773
L85.7629 135.0011
" />
<path d="M85.7629 135.0011
L85.8582 134.6201
" />
<path d="M85.8582 134.6201
L85.9534 134.4296
" />
<path d="M85.9534 134.4296
L86.0486 134.3344
" />
<path d="M86.0486 134.3344
L86.2391 134.2392
" />
<path d="M87.5724 134.2392
L88.8105 134.2392
" />
<path d="M88.8105 134.2392
L88.1439 135.0011
" />
<path d="M88.1439 135.0011
L88.4296 135.0011
" />
<path d="M88.4296 135.0011
L88.6201 135.0963
" />
<path d="M88.6201 135.0963
L88.7153 135.1915
" />
<path d="M88.7153 135.1915
L88.8105 135.3820
" />
<path d="M88.8105 135.3820
L88.8105 135.8582
" />
<path d="M88.8105 135.8582
L88.7153 136.0487
" />
<path d="M88.7153 136.0487
L88.6201 136.1439
" />
<path d="M88.6201 136.1439
L88.4296 136.2392
" />
<path d="M88.4296 136.2392
L87.8582 136.2392
" />
<path d="M87.8582 136.2392
L87.6677 136.1439
" />
<path d="M87.6677 136.1439
L87.5724 136.0487
" />
<path d="M89.7629 136.2392
L90.1439 136.2392
" />
<path d="M90.1439 136.2392
L90.3343 136.1439
" />
<path d="M90.3343 136.1439
L90.4296 136.0487
" />
<path d="M90.4296 136.0487
L90.6201 135.7630
" />
<path d="M90.6201 135.7630
L90.7153 135.3820
" />
<path d="M90.7153 135.3820
L90.7153 134.6201
" />
<path d="M90.7153 134.6201
L90.6201 134.4296
" />
<path d="M90.6201 134.4296
L90.5248 134.3344
" />
<path d="M90.5248 134.3344
L90.3343 134.2392
" />
<path d="M90.3343 134.2392
L89.9534 134.2392
" />
<path d="M89.9534 134.2392
L89.7629 134.3344
" />
<path d="M89.7629 134.3344
L89.6677 134.4296
" />
<path d="M89.6677 134.4296
L89.5724 134.6201
" />
<path d="M89.5724 134.6201
L89.5724 135.0963
" />
<path d="M89.5724 135.0963
L89.6677 135.2868
" />
<path d="M89.6677 135.2868
L89.7629 135.3820
" />
<path d="M89.7629 135.3820
L89.9534 135.4773
" />
<path d="M89.9534 135.4773
L90.3343 135.4773
" />
<path d="M90.3343 135.4773
L90.5248 135.3820
" />
<path d="M90.5248 135.3820
L90.6201 135.2868
" />
<path d="M90.6201 135.2868
L90.7153 135.0963
" />
<path d="M92.4296 134.9058
L92.4296 136.2392
" />
<path d="M91.9534 134.1439
L91.4772 135.5725
" />
<path d="M91.4772 135.5725
L92.7153 135.5725
" />
<path d="M93.3820 134.2392
L93.3820 134.6201
" />
<path d="M94.1439 134.2392
L94.1439 134.6201
" />
<path d="M97.0962 137.0011
L97.0010 136.9058
" />
<path d="M97.0010 136.9058
L96.8105 136.6201
" />
<path d="M96.8105 136.6201
L96.7153 136.4296
" />
<path d="M96.7153 136.4296
L96.6201 136.1439
" />
<path d="M96.6201 136.1439
L96.5248 135.6677
" />
<path d="M96.5248 135.6677
L96.5248 135.2868
" />
<path d="M96.5248 135.2868
L96.6201 134.8106
" />
<path d="M96.6201 134.8106
L96.7153 134.5249
" />
<path d="M96.7153 134.5249
L96.8105 134.3344
" />
<path d="M96.8105 134.3344
L97.0010 134.0487
" />
<path d="M97.0010 134.0487
L97.0962 133.9534
" />
<path d="M97.6677 134.2392
L99.0010 134.2392
" />
<path d="M99.0010 134.2392
L98.1439 136.2392
" />
<path d="M101.2867 136.2392
L101.2867 134.2392
" />
<path d="M102.1439 136.2392
L102.1439 135.1915
" />
<path d="M102.1439 135.1915
L102.0486 135.0011
" />
<path d="M102.0486 135.0011
L101.8582 134.9058
" />
<path d="M101.8582 134.9058
L101.5724 134.9058
" />
<path d="M101.5724 134.9058
L101.3820 135.0011
" />
<path d="M101.3820 135.0011
L101.2867 135.0963
" />
<path d="M103.3820 136.2392
L103.1915 136.1439
" />
<path d="M103.1915 136.1439
L103.0962 136.0487
" />
<path d="M103.0962 136.0487
L103.0010 135.8582
" />
<path d="M103.0010 135.8582
L103.0010 135.2868
" />
<path d="M103.0010 135.2868
L103.0962 135.0963
" />
<path d="M103.0962 135.0963
L103.1915 135.0011
" />
<path d="M103.1915 135.0011
L103.3820 134.9058
" />
<path d="M103.3820 134.9058
L103.6677 134.9058
" />
<path d="M103.6677 134.9058
L103.8582 135.0011
" />
<path d="M103.8582 135.0011
L103.9534 135.0963
" />
<path d="M103.9534 135.0963
L104.0486 135.2868
" />
<path d="M104.0486 135.2868
L104.0486 135.8582
" />
<path d="M104.0486 135.8582
L103.9534 136.0487
" />
<path d="M103.9534 136.0487
L103.8582 136.1439
" />
<path d="M103.8582 136.1439
L103.6677 136.2392
" />
<path d="M103.6677 136.2392
L103.3820 136.2392
" />
<path d="M105.1915 136.2392
L105.0010 136.1439
" />
<path d="M105.0010 136.1439
L104.9058 135.9534
" />
<path d="M104.9058 135.9534
L104.9058 134.2392
" />
<path d="M106.7153 136.1439
L106.5248 136.2392
" />
<path d="M106.5248 136.2392
L106.1439 136.2392
" />
<path d="M106.1439 136.2392
L105.9534 136.1439
" />
<path d="M105.9534 136.1439
L105.8582 135.9534
" />
<path d="M105.8582 135.9534
L105.8582 135.1915
" />
<path d="M105.8582 135.1915
L105.9534 135.0011
" />
<path d="M105.9534 135.0011
L106.1439 134.9058
" />
<path d="M106.1439 134.9058
L106.5248 134.9058
" />
<path d="M106.5248 134.9058
L106.7153 135.0011
" />
<path d="M106.7153 135.0011
L106.8105 135.1915
" />
<path d="M106.8105 135.1915
L106.8105 135.3820
" />
<path d="M106.8105 135.3820
L105.8582 135.5725
" />
<path d="M107.5724 136.1439
L107.7629 136.2392
" />
<path d="M107.7629 136.2392
L108.1439 136.2392
" />
<path d="M108.1439 136.2392
L108.3343 136.1439
" />
<path d="M108.3343 136.1439
L108.4296 135.9534
" />
<path d="M108.4296 135.9534
L108.4296 135.8582
" />
<path d="M108.4296 135.8582
L108.3343 135.6677
" />
<path d="M108.3343 135.6677
L108.1439 135.5725
" />
<path d="M108.1439 135.5725
L107.8582 135.5725
" />
<path d="M107.8582 135.5725
L107.6677 135.4773
" />
<path d="M107.6677 135.4773
L107.5724 135.2868
" />
<path d="M107.5724 135.2868
L107.5724 135.1915
" />
<path d="M107.5724 135.1915
L107.6677 135.0011
" />
<path d="M107.6677 135.0011
L107.8582 134.9058
" />
<path d="M107.8582 134.9058
L108.1439 134.9058
" />
<path d="M108.1439 134.9058
L108.3343 135.0011
" />
<path d="M109.0962 137.0011
L109.1915 136.9058
" />
<path d="M109.1915 136.9058
L109.3820 136.6201
" />
<path d="M109.3820 136.6201
L109.4772 136.4296
" />
<path d="M109.4772 136.4296
L109.5724 136.1439
" />
<path d="M109.5724 136.1439
L109.6677 135.6677
" />
<path d="M109.6677 135.6677
L109.6677 135.2868
" />
<path d="M109.6677 135.2868
L109.5724 134.8106
" />
<path d="M109.5724 134.8106
L109.4772 134.5249
" />
<path d="M109.4772 134.5249
L109.3820 134.3344
" />
<path d="M109.3820 134.3344
L109.1915 134.0487
" />
<path d="M109.1915 134.0487
L109.0962 133.9534
" />
</g><path style="fill:none; 
stroke:#000000; stroke-width:0.1442; stroke-opacity:1; 
stroke-linecap:round; stroke-linejoin:round;fill:none"
d="M 60.6247,138.6853
61.3456,137.9643
60.6247,137.2434
59.9037,137.9643
Z" /> 
</g>
<g style="fill:none; 
stroke:#000000; stroke-width:0.2000; stroke-opacity:1; 
stroke-linecap:round; stroke-linejoin:round;">
<text x="63.3456" y="138.9643"
textLength="48.7714" font-size="2.6667" lengthAdjust="spacingAndGlyphs"
text-anchor="start" opacity="0" stroke-opacity="0">1.100mm / 0.0433" (44 holes)</text>
<g class="stroked-text"><desc>1.100mm / 0.0433" (44 holes)</desc>
<path d="M65.0010 138.8792
L63.8582 138.8792
" />
<path d="M64.4296 138.8792
L64.4296 136.8792
" />
<path d="M64.4296 136.8792
L64.2391 137.1649
" />
<path d="M64.2391 137.1649
L64.0486 137.3553
" />
<path d="M64.0486 137.3553
L63.8582 137.4506
" />
<path d="M65.8582 138.6887
L65.9534 138.7839
" />
<path d="M65.9534 138.7839
L65.8582 138.8792
" />
<path d="M65.8582 138.8792
L65.7629 138.7839
" />
<path d="M65.7629 138.7839
L65.8582 138.6887
" />
<path d="M65.8582 138.6887
L65.8582 138.8792
" />
<path d="M67.8582 138.8792
L66.7153 138.8792
" />
<path d="M67.2867 138.8792
L67.2867 136.8792
" />
<path d="M67.2867 136.8792
L67.0962 137.1649
" />
<path d="M67.0962 137.1649
L66.9058 137.3553
" />
<path d="M66.9058 137.3553
L66.7153 137.4506
" />
<path d="M69.0962 136.8792
L69.2867 136.8792
" />
<path d="M69.2867 136.8792
L69.4772 136.9744
" />
<path d="M69.4772 136.9744
L69.5724 137.0696
" />
<path d="M69.5724 137.0696
L69.6677 137.2601
" />
<path d="M69.6677 137.2601
L69.7629 137.6411
" />
<path d="M69.7629 137.6411
L69.7629 138.1173
" />
<path d="M69.7629 138.1173
L69.6677 138.4982
" />
<path d="M69.6677 138.4982
L69.5724 138.6887
" />
<path d="M69.5724 138.6887
L69.4772 138.7839
" />
<path d="M69.4772 138.7839
L69.2867 138.8792
" />
<path d="M69.2867 138.8792
L69.0962 138.8792
" />
<path d="M69.0962 138.8792
L68.9058 138.7839
" />
<path d="M68.9058 138.7839
L68.8105 138.6887
" />
<path d="M68.8105 138.6887
L68.7153 138.4982
" />
<path d="M68.7153 138.4982
L68.6201 138.1173
" />
<path d="M68.6201 138.1173
L68.6201 137.6411
" />
<path d="M68.6201 137.6411
L68.7153 137.2601
" />
<path d="M68.7153 137.2601
L68.8105 137.0696
" />
<path d="M68.8105 137.0696
L68.9058 136.9744
" />
<path d="M68.9058 136.9744
L69.0962 136.8792
" />
<path d="M71.0010 136.8792
L71.1915 136.8792
" />
<path d="M71.1915 136.8792
L71.3820 136.9744
" />
<path d="M71.3820 136.9744
L71.4772 137.0696
" />
<path d="M71.4772 137.0696
L71.5724 137.2601
" />
<path d="M71.5724 137.2601
L71.6677 137.6411
" />
<path d="M71.6677 137.6411
L71.6677 138.1173
" />
<path d="M71.6677 138.1173
L71.5724 138.4982
" />
<path d="M71.5724 138.4982
L71.4772 138.6887
" />
<path d="M71.4772 138.6887
L71.3820 138.7839
" />
<path d="M71.3820 138.7839
L71.1915 138.8792
" />
<path d="M71.1915 138.8792
L71.0010 138.8792
" />
<path d="M71.0010 138.8792
L70.8105 138.7839
" />
<path d="M70.8105 138.7839
L70.7153 138.6887
" />
<path d="M70.7153 138.6887
L70.6201 138.4982
" />
<path d="M70.6201 138.4982
L70.5248 138.1173
" />
<path d="M70.5248 138.1173
L70.5248 137.6411
" />
<path d="M70.5248 137.6411
L70.6201 137.2601
" />
<path d="M70.6201 137.2601
L70.7153 137.0696
" />
<path d="M70.7153 137.0696
L70.8105 136.9744
" />
<path d="M70.8105 136.9744
L71.0010 136.8792
" />
<path d="M72.5248 138.8792
L72.5248 137.5458
" />
<path d="M72.5248 137.7363
L72.6201 137.6411
" />
<path d="M72.6201 137.6411
L72.8105 137.5458
" />
<path d="M72.8105 137.5458
L73.0962 137.5458
" />
<path d="M73.0962 137.5458
L73.2867 137.6411
" />
<path d="M73.2867 137.6411
L73.3820 137.8315
" />
<path d="M73.3820 137.8315
L73.3820 138.8792
" />
<path d="M73.3820 137.8315
L73.4772 137.6411
" />
<path d="M73.4772 137.6411
L73.6677 137.5458
" />
<path d="M73.6677 137.5458
L73.9534 137.5458
" />
<path d="M73.9534 137.5458
L74.1439 137.6411
" />
<path d="M74.1439 137.6411
L74.2391 137.8315
" />
<path d="M74.2391 137.8315
L74.2391 138.8792
" />
<path d="M75.1915 138.8792
L75.1915 137.5458
" />
<path d="M75.1915 137.7363
L75.2867 137.6411
" />
<path d="M75.2867 137.6411
L75.4772 137.5458
" />
<path d="M75.4772 137.5458
L75.7629 137.5458
" />
<path d="M75.7629 137.5458
L75.9534 137.6411
" />
<path d="M75.9534 137.6411
L76.0486 137.8315
" />
<path d="M76.0486 137.8315
L76.0486 138.8792
" />
<path d="M76.0486 137.8315
L76.1439 137.6411
" />
<path d="M76.1439 137.6411
L76.3343 137.5458
" />
<path d="M76.3343 137.5458
L76.6201 137.5458
" />
<path d="M76.6201 137.5458
L76.8105 137.6411
" />
<path d="M76.8105 137.6411
L76.9058 137.8315
" />
<path d="M76.9058 137.8315
L76.9058 138.8792
" />
<path d="M80.8105 136.7839
L79.0962 139.3553
" />
<path d="M83.3820 136.8792
L83.5724 136.8792
" />
<path d="M83.5724 136.8792
L83.7629 136.9744
" />
<path d="M83.7629 136.9744
L83.8582 137.0696
" />
<path d="M83.8582 137.0696
L83.9534 137.2601
" />
<path d="M83.9534 137.2601
L84.0486 137.6411
" />
<path d="M84.0486 137.6411
L84.0486 138.1173
" />
<path d="M84.0486 138.1173
L83.9534 138.4982
" />
<path d="M83.9534 138.4982
L83.8582 138.6887
" />
<path d="M83.8582 138.6887
L83.7629 138.7839
" />
<path d="M83.7629 138.7839
L83.5724 138.8792
" />
<path d="M83.5724 138.8792
L83.3820 138.8792
" />
<path d="M83.3820 138.8792
L83.1915 138.7839
" />
<path d="M83.1915 138.7839
L83.0962 138.6887
" />
<path d="M83.0962 138.6887
L83.0010 138.4982
" />
<path d="M83.0010 138.4982
L82.9058 138.1173
" />
<path d="M82.9058 138.1173
L82.9058 137.6411
" />
<path d="M82.9058 137.6411
L83.0010 137.2601
" />
<path d="M83.0010 137.2601
L83.0962 137.0696
" />
<path d="M83.0962 137.0696
L83.1915 136.9744
" />
<path d="M83.1915 136.9744
L83.3820 136.8792
" />
<path d="M84.9058 138.6887
L85.0010 138.7839
" />
<path d="M85.0010 138.7839
L84.9058 138.8792
" />
<path d="M84.9058 138.8792
L84.8105 138.7839
" />
<path d="M84.8105 138.7839
L84.9058 138.6887
" />
<path d="M84.9058 138.6887
L84.9058 138.8792
" />
<path d="M86.2391 136.8792
L86.4296 136.8792
" />
<path d="M86.4296 136.8792
L86.6201 136.9744
" />
<path d="M86.6201 136.9744
L86.7153 137.0696
" />
<path d="M86.7153 137.0696
L86.8105 137.2601
" />
<path d="M86.8105 137.2601
L86.9058 137.6411
" />
<path d="M86.9058 137.6411
L86.9058 138.1173
" />
<path d="M86.9058 138.1173
L86.8105 138.4982
" />
<path d="M86.8105 138.4982
L86.7153 138.6887
" />
<path d="M86.7153 138.6887
L86.6201 138.7839
" />
<path d="M86.6201 138.7839
L86.4296 138.8792
" />
<path d="M86.4296 138.8792
L86.2391 138.8792
" />
<path d="M86.2391 138.8792
L86.0486 138.7839
" />
<path d="M86.0486 138.7839
L85.9534 138.6887
" />
<path d="M85.9534 138.6887
L85.8582 138.4982
" />
<path d="M85.8582 138.4982
L85.7629 138.1173
" />
<path d="M85.7629 138.1173
L85.7629 137.6411
" />
<path d="M85.7629 137.6411
L85.8582 137.2601
" />
<path d="M85.8582 137.2601
L85.9534 137.0696
" />
<path d="M85.9534 137.0696
L86.0486 136.9744
" />
<path d="M86.0486 136.9744
L86.2391 136.8792
" />
<path d="M88.6201 137.5458
L88.6201 138.8792
" />
<path d="M88.1439 136.7839
L87.6677 138.2125
" />
<path d="M87.6677 138.2125
L88.9058 138.2125
" />
<path d="M89.4772 136.8792
L90.7153 136.8792
" />
<path d="M90.7153 136.8792
L90.0486 137.6411
" />
<path d="M90.0486 137.6411
L90.3343 137.6411
" />
<path d="M90.3343 137.6411
L90.5248 137.7363
" />
<path d="M90.5248 137.7363
L90.6201 137.8315
" />
<path d="M90.6201 137.8315
L90.7153 138.0220
" />
<path d="M90.7153 138.0220
L90.7153 138.4982
" />
<path d="M90.7153 138.4982
L90.6201 138.6887
" />
<path d="M90.6201 138.6887
L90.5248 138.7839
" />
<path d="M90.5248 138.7839
L90.3343 138.8792
" />
<path d="M90.3343 138.8792
L89.7629 138.8792
" />
<path d="M89.7629 138.8792
L89.5724 138.7839
" />
<path d="M89.5724 138.7839
L89.4772 138.6887
" />
<path d="M91.3820 136.8792
L92.6201 136.8792
" />
<path d="M92.6201 136.8792
L91.9534 137.6411
" />
<path d="M91.9534 137.6411
L92.2391 137.6411
" />
<path d="M92.2391 137.6411
L92.4296 137.7363
" />
<path d="M92.4296 137.7363
L92.5248 137.8315
" />
<path d="M92.5248 137.8315
L92.6201 138.0220
" />
<path d="M92.6201 138.0220
L92.6201 138.4982
" />
<path d="M92.6201 138.4982
L92.5248 138.6887
" />
<path d="M92.5248 138.6887
L92.4296 138.7839
" />
<path d="M92.4296 138.7839
L92.2391 138.8792
" />
<path d="M92.2391 138.8792
L91.6677 138.8792
" />
<path d="M91.6677 138.8792
L91.4772 138.7839
" />
<path d="M91.4772 138.7839
L91.3820 138.6887
" />
<path d="M93.3820 136.8792
L93.3820 137.2601
" />
<path d="M94.1439 136.8792
L94.1439 137.2601
" />
<path d="M97.0962 139.6411
L97.0010 139.5458
" />
<path d="M97.0010 139.5458
L96.8105 139.2601
" />
<path d="M96.8105 139.2601
L96.7153 139.0696
" />
<path d="M96.7153 139.0696
L96.6201 138.7839
" />
<path d="M96.6201 138.7839
L96.5248 138.3077
" />
<path d="M96.5248 138.3077
L96.5248 137.9268
" />
<path d="M96.5248 137.9268
L96.6201 137.4506
" />
<path d="M96.6201 137.4506
L96.7153 137.1649
" />
<path d="M96.7153 137.1649
L96.8105 136.9744
" />
<path d="M96.8105 136.9744
L97.0010 136.6887
" />
<path d="M97.0010 136.6887
L97.0962 136.5934
" />
<path d="M98.7153 137.5458
L98.7153 138.8792
" />
<path d="M98.2391 136.7839
L97.7629 138.2125
" />
<path d="M97.7629 138.2125
L99.0010 138.2125
" />
<path d="M100.6201 137.5458
L100.6201 138.8792
" />
<path d="M100.1439 136.7839
L99.6677 138.2125
" />
<path d="M99.6677 138.2125
L100.9058 138.2125
" />
<path d="M103.1915 138.8792
L103.1915 136.8792
" />
<path d="M104.0486 138.8792
L104.0486 137.8315
" />
<path d="M104.0486 137.8315
L103.9534 137.6411
" />
<path d="M103.9534 137.6411
L103.7629 137.5458
" />
<path d="M103.7629 137.5458
L103.4772 137.5458
" />
<path d="M103.4772 137.5458
L103.2867 137.6411
" />
<path d="M103.2867 137.6411
L103.1915 137.7363
" />
<path d="M105.2867 138.8792
L105.0962 138.7839
" />
<path d="M105.0962 138.7839
L105.0010 138.6887
" />
<path d="M105.0010 138.6887
L104.9058 138.4982
" />
<path d="M104.9058 138.4982
L104.9058 137.9268
" />
<path d="M104.9058 137.9268
L105.0010 137.7363
" />
<path d="M105.0010 137.7363
L105.0962 137.6411
" />
<path d="M105.0962 137.6411
L105.2867 137.5458
" />
<path d="M105.2867 137.5458
L105.5724 137.5458
" />
<path d="M105.5724 137.5458
L105.7629 137.6411
" />
<path d="M105.7629 137.6411
L105.8582 137.7363
" />
<path d="M105.8582 137.7363
L105.9534 137.9268
" />
<path d="M105.9534 137.9268
L105.9534 138.4982
" />
<path d="M105.9534 138.4982
L105.8582 138.6887
" />
<path d="M105.8582 138.6887
L105.7629 138.7839
" />
<path d="M105.7629 138.7839
L105.5724 138.8792
" />
<path d="M105.5724 138.8792
L105.2867 138.8792
" />
<path d="M107.0962 138.8792
L106.9058 138.7839
" />
<path d="M106.9058 138.7839
L106.8105 138.5934
" />
<path d="M106.8105 138.5934
L106.8105 136.8792
" />
<path d="M108.6201 138.7839
L108.4296 138.8792
" />
<path d="M108.4296 138.8792
L108.0486 138.8792
" />
<path d="M108.0486 138.8792
L107.8582 138.7839
" />
<path d="M107.8582 138.7839
L107.7629 138.5934
" />
<path d="M107.7629 138.5934
L107.7629 137.8315
" />
<path d="M107.7629 137.8315
L107.8582 137.6411
" />
<path d="M107.8582 137.6411
L108.0486 137.5458
" />
<path d="M108.0486 137.5458
L108.4296 137.5458
" />
<path d="M108.4296 137.5458
L108.6201 137.6411
" />
<path d="M108.6201 137.6411
L108.7153 137.8315
" />
<path d="M108.7153 137.8315
L108.7153 138.0220
" />
<path d="M108.7153 138.0220
L107.7629 138.2125
" />
<path d="M109.4772 138.7839
L109.6677 138.8792
" />
<path d="M109.6677 138.8792
L110.0486 138.8792
" />
<path d="M110.0486 138.8792
L110.2391 138.7839
" />
<path d="M110.2391 138.7839
L110.3343 138.5934
" />
<path d="M110.3343 138.5934
L110.3343 138.4982
" />
<path d="M110.3343 138.4982
L110.2391 138.3077
" />
<path d="M110.2391 138.3077
L110.0486 138.2125
" />
<path d="M110.0486 138.2125
L109.7629 138.2125
" />
<path d="M109.7629 138.2125
L109.5724 138.1173
" />
<path d="M109.5724 138.1173
L109.4772 137.9268
" />
<path d="M109.4772 137.9268
L109.4772 137.8315
" />
<path d="M109.4772 137.8315
L109.5724 137.6411
" />
<path d="M109.5724 137.6411
L109.7629 137.5458
" />
<path d="M109.7629 137.5458
L110.0486 137.5458
" />
<path d="M110.0486 137.5458
L110.2391 137.6411
" />
<path d="M111.0010 139.6411
L111.0962 139.5458
" />
<path d="M111.0962 139.5458
L111.2867 139.2601
" />
<path d="M111.2867 139.2601
L111.3820 139.0696
" />
<path d="M111.3820 139.0696
L111.4772 138.7839
" />
<path d="M111.4772 138.7839
L111.5724 138.3077
" />
<path d="M111.5724 138.3077
L111.5724 137.9268
" />
<path d="M111.5724 137.9268
L111.4772 137.4506
" />
<path d="M111.4772 137.4506
L111.3820 137.1649
" />
<path d="M111.3820 137.1649
L111.2867 136.9744
" />
<path d="M111.2867 136.9744
L111.0962 136.6887
" />
<path d="M111.0962 136.6887
L111.0010 136.5934
" />
</g></g> 
</svg>
